<svg version="1.1" id="Layer_1" xmlns="http://www.w3.org/2000/svg" xmlns:xlink="http://www.w3.org/1999/xlink" x="0px" y="0px"
	 width="100%" viewBox="0 0 96 96" enable-background="new 0 0 96 96" xml:space="preserve">
<path fill="#131313" opacity="1.000000" stroke="none" 
	d="
M57.000000,97.000000 
	C56.555553,97.000000 56.111111,97.000000 55.092381,96.657806 
	C50.678730,96.543739 46.839367,96.771873 43.000000,97.000000 
	C41.933331,97.000000 40.866661,97.000000 39.364296,96.623497 
	C38.193138,95.897430 37.489105,95.441116 36.717602,95.213974 
	C19.002108,89.998383 7.679718,78.501198 2.662201,60.732918 
	C2.383033,59.744316 1.566446,58.907478 1.000000,58.000000 
	C1.000000,56.611111 1.000000,55.222221 1.296008,53.142990 
	C1.394678,49.301762 1.197339,46.150883 1.000000,43.000000 
	C1.000000,41.933331 1.000000,40.866661 1.373789,39.355122 
	C2.090764,38.167744 2.534556,37.454750 2.762355,36.678387 
	C7.842725,19.363850 18.889824,7.945482 36.212269,2.656916 
	C37.216526,2.350314 38.074142,1.563391 39.000000,1.000000 
	C44.688042,1.000000 50.376080,1.000000 56.684574,1.354378 
	C76.577850,5.614207 89.145950,16.994713 95.209961,35.658482 
	C95.692238,37.142822 96.398064,38.554535 97.000000,40.000000 
	C97.000000,46.021152 97.000000,52.042305 96.643860,58.635017 
	C96.030975,59.812515 95.712196,60.400074 95.526474,61.027046 
	C90.064568,79.465118 77.926987,90.937050 59.378757,95.766281 
	C58.535900,95.985725 57.790691,96.580200 57.000000,97.000000 
M84.912148,54.930592 
	C84.912148,54.930592 84.858757,54.950851 84.125053,54.941189 
	C84.152588,55.650253 84.180115,56.359314 84.075104,57.861847 
	C85.760597,58.630161 87.446098,59.398476 89.131592,60.166786 
	C89.408806,59.442974 89.686020,58.719162 90.593666,57.660576 
	C90.541878,56.508717 90.490082,55.356861 90.438293,54.205002 
	C89.924850,54.457878 89.411407,54.710751 88.450981,54.991009 
	C88.450981,54.991009 88.003151,54.989021 87.467133,54.893311 
	C87.109680,54.926830 86.752235,54.960350 86.354462,54.170357 
	C85.795822,53.909927 85.237183,53.649494 84.678543,53.389061 
	C84.742645,53.889755 84.806747,54.390453 84.912148,54.930592 
M42.542877,77.945831 
	C42.776363,77.788269 43.009850,77.630707 43.243332,77.473145 
	C42.838257,77.330002 42.433182,77.186859 41.730564,76.703827 
	C41.378620,76.871094 41.026672,77.038361 40.674728,77.205627 
	C41.143227,77.461441 41.611725,77.717247 42.542877,77.945831 
M89.529198,52.314514 
	C89.992752,52.157391 90.456299,52.000267 90.919853,51.843147 
	C90.299599,51.501308 89.679337,51.159466 88.878159,50.117653 
	C88.270264,50.265717 87.662376,50.413780 87.054482,50.561840 
	C87.705490,51.034206 88.356506,51.506573 89.529198,52.314514 
M50.261906,84.039986 
	C49.791088,84.157860 49.320274,84.275742 48.123764,84.290329 
	C48.491955,86.233994 48.860149,88.177666 49.854645,90.049622 
	C50.247692,89.382347 50.640736,88.715065 51.224747,87.442223 
	C50.852695,87.256279 50.480648,87.070328 50.052128,86.438766 
	C50.052128,86.438766 49.988838,85.994041 50.511349,85.997833 
	C50.683056,86.027054 50.854763,86.056282 51.241650,86.269997 
	C51.241650,86.269997 51.470417,86.102669 52.279995,86.119102 
	C53.089294,87.000183 53.830532,87.960220 54.730618,88.735962 
	C55.385460,89.300316 56.250122,89.621223 57.809746,90.108109 
	C58.897884,89.400208 59.986023,88.692299 61.625465,87.986282 
	C61.807819,87.963539 61.990177,87.940804 62.686413,88.210220 
	C63.462631,87.807808 64.238846,87.405396 65.612076,87.034363 
	C70.476097,87.817070 65.526978,84.518867 67.073647,83.071465 
	C66.419434,79.633286 64.908089,80.122589 62.461575,81.985817 
	C61.935902,82.229805 61.410229,82.473793 60.179573,82.851273 
	C59.466194,82.922997 58.752811,82.994720 57.450325,82.976883 
	C56.967251,83.278496 56.484177,83.580109 55.281147,83.853119 
	C54.585865,84.029305 53.890587,84.205482 52.536377,83.964363 
	C52.020977,83.987244 51.505577,84.010117 50.261906,84.039986 
M79.772011,20.790529 
	C79.628937,19.868032 79.485863,18.945536 79.342781,18.023039 
	C78.927551,18.693504 78.512329,19.363970 77.935104,20.726355 
	C78.142876,21.386972 78.350655,22.047588 78.558418,22.708204 
	C78.741364,22.191952 78.924309,21.675697 79.772011,20.790529 
M74.341736,17.925211 
	C73.909790,18.033268 73.477837,18.141325 73.188789,17.543665 
	C73.337059,16.247663 73.485321,14.951663 73.554726,14.345029 
	C71.411209,14.595472 69.709290,14.794322 68.059196,14.361418 
	C68.263100,13.246680 68.467003,12.131942 68.670898,11.017203 
	C67.264626,10.784419 65.809570,10.205600 64.462891,10.395490 
	C62.120579,10.725771 59.845181,11.530582 57.657566,11.312765 
	C57.657566,10.245102 57.657566,9.177439 57.657566,8.038734 
	C56.270111,8.478391 55.108425,8.846505 53.988346,8.635529 
	C53.736393,8.356869 53.484440,8.078209 52.834549,7.223955 
	C52.174488,7.251338 51.514431,7.278722 50.142342,7.302520 
	C45.694572,6.835725 47.734573,10.014785 46.872047,11.723991 
	C44.969852,10.142622 43.067657,8.561253 41.165462,6.979883 
	C40.652138,7.652199 40.138813,8.324515 39.625488,8.996831 
	C43.392982,9.366420 42.492069,15.883385 48.637165,13.953996 
	C49.078339,13.839764 49.519516,13.725531 50.612995,13.972478 
	C51.738831,13.646124 52.864670,13.319770 54.423145,13.073236 
	C54.423145,13.073236 54.863079,13.070848 55.188187,13.611089 
	C55.774082,13.694288 56.359978,13.777488 57.521496,13.920937 
	C61.017132,15.283428 64.512772,16.645920 68.573875,18.081707 
	C70.048653,19.054874 71.523430,20.028040 73.882935,21.061758 
	C74.425385,19.975117 74.967834,18.888475 75.833717,17.663416 
	C75.664185,17.494957 75.494659,17.326498 75.325127,17.158037 
	C75.224304,17.386242 75.123489,17.614445 74.341736,17.925211 
M56.802864,76.014374 
	C57.190453,76.014099 57.578037,76.013824 58.585266,75.862007 
	C58.768356,74.567177 58.951443,73.272339 59.772137,71.958252 
	C61.101364,71.830292 62.430595,71.702339 63.908684,71.560051 
	C62.974991,69.850243 61.999935,68.064705 61.739017,66.338394 
	C61.976868,66.316399 62.214714,66.294395 62.505569,66.269341 
	C62.505569,66.269341 62.510361,66.322220 63.466591,66.680977 
	C63.791843,66.580429 64.117096,66.479881 64.793121,66.413765 
	C64.793121,66.413765 64.938019,66.092476 65.784714,65.942268 
	C67.182091,66.284782 68.659073,67.091698 69.959526,66.868782 
	C72.336555,66.461334 76.124146,66.008415 76.655029,64.581604 
	C78.629982,59.273682 79.520142,53.562130 80.959312,47.141251 
	C81.590355,39.732250 78.343521,33.916885 73.401558,28.840405 
	C73.401558,28.840405 73.365250,28.805231 73.150780,28.177330 
	C72.754196,28.084322 72.357620,27.991312 71.811317,27.630104 
	C71.583015,27.568066 71.465553,27.418930 71.863335,26.692730 
	C61.129379,12.955134 34.041267,13.301868 23.103382,30.208382 
	C22.614975,31.106009 22.126568,32.003635 21.119415,33.348347 
	C20.105097,36.230949 19.090778,39.113552 17.711605,42.715969 
	C17.590534,46.014324 17.469461,49.312679 17.160673,53.510361 
	C17.373394,54.632717 17.494915,55.781647 17.812946,56.873322 
	C20.982668,67.753746 22.252954,68.319954 31.496023,63.061306 
	C31.635836,62.981762 31.804264,62.952511 32.681973,62.855667 
	C35.138660,61.399097 37.595352,59.942528 40.549530,58.976265 
	C41.347092,59.380905 42.144653,59.785545 42.984497,60.851913 
	C43.991936,61.394753 44.999378,61.937595 46.809502,62.526302 
	C47.548023,62.274799 48.286545,62.023293 49.688488,61.845352 
	C50.121639,61.928951 50.554794,62.012554 50.988651,62.743019 
	C50.981548,63.389500 50.974445,64.035980 50.160183,64.884491 
	C48.775997,64.936623 47.391815,64.988762 45.579582,64.443062 
	C43.015915,63.616455 40.740326,63.473011 39.390312,67.241257 
	C38.525700,68.123711 37.661091,69.006172 36.340832,70.353676 
	C41.186455,71.354431 45.033291,72.148911 49.432999,73.314156 
	C50.638176,74.222839 51.843353,75.131516 53.357658,76.483727 
	C53.697701,76.588745 54.037743,76.693764 54.706184,77.214264 
	C55.211617,76.817284 55.717052,76.420303 56.802864,76.014374 
M82.674515,72.141457 
	C82.107826,71.423309 81.541130,70.705170 80.321480,69.985847 
	C79.884232,70.626976 79.446983,71.268097 78.226570,71.705254 
	C77.719376,72.448395 77.212181,73.191544 76.519440,73.802727 
	C76.519440,73.802727 76.299515,73.861641 75.491226,73.791962 
	C74.416168,74.533203 73.213760,75.146049 72.301231,76.051155 
	C71.354088,76.990593 70.687492,78.212891 69.898209,79.311485 
	C71.254616,79.880760 72.652336,80.989105 73.957436,80.889061 
	C75.774292,80.749794 77.521805,79.705818 79.204048,79.084145 
	C79.116180,77.508911 79.045860,76.248360 79.828445,75.288017 
	C80.977509,74.799629 82.126572,74.311249 83.275635,73.822861 
	C82.847870,73.516632 82.420097,73.210396 82.160385,72.647476 
	C82.160385,72.647476 82.052414,72.360291 82.674515,72.141457 
M40.290741,83.869003 
	C39.813892,84.565453 39.337044,85.261902 38.139927,85.934677 
	C36.912601,85.804909 35.685280,85.675133 34.631741,85.563736 
	C35.658825,84.437386 36.535313,83.476189 37.858849,82.024727 
	C35.590004,82.024727 34.357624,82.024727 33.347736,81.240242 
	C32.908718,80.807434 32.469700,80.374626 31.469894,79.476364 
	C30.309439,79.498505 29.148983,79.520645 27.549101,78.995300 
	C27.001184,78.791939 26.453268,78.588570 25.698484,77.588226 
	C24.943226,76.374535 24.187967,75.160843 23.494747,73.991997 
	C23.494747,73.991997 23.563423,74.025818 23.394068,73.301674 
	C22.591663,72.437767 21.789259,71.573860 20.788593,70.173256 
	C20.196926,70.008736 19.474440,69.550873 19.042124,69.743668 
	C18.256886,70.093849 17.697670,70.917648 16.944494,71.382286 
	C16.190887,71.847183 15.315404,72.114525 14.493340,72.468460 
	C15.315913,73.311363 16.138487,74.154266 17.011211,75.697365 
	C17.685785,76.207184 18.360357,76.717003 19.237778,77.575447 
	C19.422375,77.780930 19.646391,77.925217 19.897161,78.695198 
	C20.947826,78.768585 21.998491,78.841980 22.986038,79.697533 
	C23.919228,80.418175 24.852419,81.138817 26.421331,81.977104 
	C26.636629,81.986343 26.851925,81.995575 26.992994,82.692787 
	C27.644449,83.719719 28.295906,84.746651 29.346735,86.419731 
	C32.498779,86.629837 35.650822,86.839935 38.951260,87.788864 
	C39.171494,88.535858 39.391724,89.282852 39.611954,90.029846 
	C40.080585,90.011963 40.549221,89.994087 41.017857,89.976204 
	C41.088890,88.393951 41.159924,86.811707 41.832134,85.049698 
	C41.592529,84.578285 41.352924,84.106880 40.290741,83.869003 
M30.589605,13.517499 
	C29.272190,12.639842 27.782270,10.471972 26.505541,14.441948 
	C26.321041,15.350301 26.136539,16.258654 25.279524,17.046009 
	C23.900467,16.859819 22.521410,16.673632 21.892298,16.588694 
	C19.937195,18.228106 18.251350,19.641735 16.123018,21.426405 
	C16.830893,24.681307 19.042082,25.274378 22.356253,23.328419 
	C23.617584,22.587811 24.845226,21.789829 26.746235,20.909500 
	C27.823812,19.990086 28.901392,19.070671 30.731394,18.052149 
	C31.134333,17.003254 31.537271,15.954358 32.619194,15.139582 
	C37.123714,19.388798 38.313324,14.348800 40.949310,12.497803 
	C32.876183,8.317122 32.746815,8.338412 31.362255,13.648695 
	C31.362255,13.648695 31.138350,13.875296 30.589605,13.517499 
M12.141809,46.982521 
	C12.676785,45.975964 13.211761,44.969406 14.202931,43.562157 
	C13.826934,42.671833 13.647120,41.596008 13.025164,40.938259 
	C12.251810,40.120399 11.113127,39.647991 10.771740,38.872490 
	C11.042864,37.829842 11.313988,36.787197 11.585112,35.744553 
	C11.183167,35.695099 10.781224,35.645645 10.379280,35.596191 
	C10.257247,36.374825 10.135215,37.153458 9.297340,38.069981 
	C9.226827,39.516651 9.156312,40.963322 8.472575,43.111767 
	C8.304592,43.373058 8.136608,43.634350 7.525443,44.306389 
	C8.079306,45.195374 8.633169,46.084362 8.917523,47.703793 
	C8.750004,49.491928 8.582485,51.280067 8.414967,53.068203 
	C8.255401,53.095413 8.095836,53.122627 7.936271,53.149837 
	C8.084669,54.783451 8.233068,56.417061 8.393617,58.184414 
	C9.431274,58.184414 10.658742,58.184414 11.760833,58.424458 
	C11.760833,58.424458 11.829853,58.686646 11.381105,59.336384 
	C11.851784,62.129860 12.322461,64.923340 12.793139,67.716820 
	C13.611523,67.577950 14.429908,67.439079 15.248292,67.300217 
	C14.877955,64.531914 14.507619,61.763611 14.659622,58.966125 
	C14.712767,58.256527 14.765910,57.546932 14.933540,56.103138 
	C14.335790,53.770241 13.738039,51.437347 13.717186,48.903404 
	C13.848516,48.424301 13.979847,47.945194 14.111177,47.466091 
	C13.567733,47.630798 13.024287,47.795502 12.141809,46.982521 
M46.306583,79.055099 
	C46.780277,79.003868 47.253967,78.952644 47.727661,78.901421 
	C47.617886,78.484520 47.508110,78.067627 47.398342,77.650734 
	C46.992470,77.932205 46.586597,78.213676 46.306583,79.055099 
M78.380653,68.506691 
	C78.380653,68.506691 78.555351,68.614250 78.555351,68.614250 
	C78.555351,68.614250 78.535690,68.402855 78.380653,68.506691 
M84.511703,71.049774 
	C84.436546,71.273018 84.361389,71.496254 84.286232,71.719498 
	C84.498512,71.649208 84.710785,71.578911 84.511703,71.049774 
M45.439571,74.488365 
	C45.439571,74.488365 45.520176,74.446312 45.439571,74.488365 
z"/>
<path fill="#FAFAFA" opacity="1.000000" stroke="none" 
	d="
M1.000000,58.468658 
	C1.566446,58.907478 2.383033,59.744316 2.662201,60.732918 
	C7.679718,78.501198 19.002108,89.998383 36.717602,95.213974 
	C37.489105,95.441116 38.193138,95.897430 38.964302,96.623497 
	C26.405743,97.000000 13.811486,97.000000 1.000000,97.000000 
	C1.000000,84.313263 1.000000,71.625290 1.000000,58.468658 
z"/>
<path fill="#FAFAFA" opacity="1.000000" stroke="none" 
	d="
M57.468658,97.000000 
	C57.790691,96.580200 58.535900,95.985725 59.378757,95.766281 
	C77.926987,90.937050 90.064568,79.465118 95.526474,61.027046 
	C95.712196,60.400074 96.030975,59.812515 96.643860,59.103291 
	C97.000000,71.595192 97.000000,84.190384 97.000000,97.000000 
	C83.979889,97.000000 70.958603,97.000000 57.468658,97.000000 
z"/>
<path fill="#FAFAFA" opacity="1.000000" stroke="none" 
	d="
M38.531342,1.000000 
	C38.074142,1.563391 37.216526,2.350314 36.212269,2.656916 
	C18.889824,7.945482 7.842725,19.363850 2.762355,36.678387 
	C2.534556,37.454750 2.090764,38.167744 1.373789,38.955124 
	C1.000000,26.406702 1.000000,13.813402 1.000000,1.000000 
	C13.353357,1.000000 25.708019,1.000000 38.531342,1.000000 
z"/>
<path fill="#F9F9F9" opacity="1.000000" stroke="none" 
	d="
M97.000000,39.531342 
	C96.398064,38.554535 95.692238,37.142822 95.209961,35.658482 
	C89.145950,16.994713 76.577850,5.614207 57.152512,1.354378 
	C70.259056,1.000000 83.518112,1.000000 97.000000,1.000000 
	C97.000000,13.686692 97.000000,26.374687 97.000000,39.531342 
z"/>
<path fill="#383839" opacity="1.000000" stroke="none" 
	d="
M43.460636,97.000000 
	C46.839367,96.771873 50.678730,96.543739 54.759048,96.657806 
	C51.307091,97.000000 47.614182,97.000000 43.460636,97.000000 
z"/>
<path fill="#383839" opacity="1.000000" stroke="none" 
	d="
M1.000000,43.454109 
	C1.197339,46.150883 1.394678,49.301762 1.296008,52.726322 
	C1.000000,49.969406 1.000000,46.938812 1.000000,43.454109 
z"/>
<path fill="#D3D4D7" opacity="1.000000" stroke="none" 
	d="
M23.633823,29.890884 
	C34.041267,13.301868 61.129379,12.955134 71.304993,26.983437 
	C69.482529,28.081705 68.218407,28.889271 66.689651,29.865896 
	C68.332916,31.769611 69.476288,33.094204 71.301193,35.208347 
	C72.165268,32.589306 72.791786,30.690281 73.418304,28.791256 
	C78.343521,33.916885 81.590355,39.732250 80.541077,47.578587 
	C79.660225,48.038925 79.197609,48.061932 78.483681,48.006184 
	C77.782524,47.397888 77.332664,46.868343 76.908829,45.972019 
	C76.622437,44.736206 76.310036,43.867168 76.009872,42.633820 
	C75.887177,40.589813 78.209396,37.727100 73.635437,37.978989 
	C72.197655,37.642593 71.100815,37.347672 69.811661,36.786324 
	C68.421303,36.007088 67.223251,35.494270 65.728638,34.854408 
	C64.295776,34.111252 63.159466,33.495140 61.929871,32.540573 
	C60.541752,31.818438 59.246925,31.434763 57.706619,30.858471 
	C56.645191,30.106781 55.829239,29.547710 55.003922,28.747255 
	C54.994560,28.505871 54.978149,28.022741 55.166344,27.765556 
	C56.673443,24.455303 56.673443,24.455303 52.966988,24.450386 
	C50.879681,22.538322 49.324699,20.061508 48.164680,20.234417 
	C43.282887,20.962086 38.454208,22.289051 33.766418,23.871592 
	C32.822231,24.190338 32.576206,26.577164 31.854542,28.289331 
	C30.799349,29.040806 29.897905,29.513441 28.835106,29.788435 
	C28.293417,29.593618 27.913084,29.596445 27.532753,29.599270 
	C27.690445,30.066666 27.848139,30.534060 27.972841,31.293987 
	C27.630680,32.060730 27.321510,32.534943 26.716089,32.958530 
	C25.491165,31.902231 24.562494,30.896557 23.633823,29.890884 
z"/>
<path fill="#B8B9BB" opacity="1.000000" stroke="none" 
	d="
M28.996464,29.986078 
	C29.897905,29.513441 30.799349,29.040806 32.172394,28.148026 
	C34.096432,27.156593 35.548862,26.585304 37.328758,26.022911 
	C38.414730,26.349619 39.173241,26.667433 39.685085,27.258083 
	C39.796211,30.944769 37.491405,34.856380 41.300785,37.700077 
	C41.387341,37.764690 40.450748,39.199898 39.560509,39.996231 
	C37.191235,40.244781 35.242737,40.432880 33.317299,40.757664 
	C31.348577,41.089752 28.692688,40.625019 29.009689,44.391823 
	C29.006783,45.509239 29.008606,46.254562 28.641798,47.011292 
	C27.504477,48.023254 26.735785,49.023811 25.615517,49.969833 
	C23.885988,48.226761 22.558102,46.493748 21.111994,44.865753 
	C20.190802,43.828697 19.094337,42.947330 18.076462,41.996155 
	C19.090778,39.113552 20.105097,36.230949 21.732624,33.181160 
	C23.266470,33.866333 24.187107,34.718700 25.486109,35.921368 
	C26.044434,34.856026 26.528389,33.932590 27.012342,33.009155 
	C27.321510,32.534943 27.630680,32.060730 28.184177,31.174343 
	C28.692411,30.558060 28.881731,30.299364 28.996464,29.986078 
z"/>
<path fill="#D6D7D9" opacity="1.000000" stroke="none" 
	d="
M78.734985,48.084934 
	C79.197609,48.061932 79.660225,48.038925 80.470192,48.009010 
	C79.520142,53.562130 78.629982,59.273682 76.655029,64.581604 
	C76.124146,66.008415 72.336555,66.461334 69.959526,66.868782 
	C68.659073,67.091698 67.182091,66.284782 65.353882,65.668793 
	C65.275291,64.566772 65.627533,63.738235 66.244843,62.837296 
	C66.333855,62.204742 66.157791,61.644592 65.665848,60.980637 
	C64.698349,60.848064 64.046722,60.819290 63.287354,60.529968 
	C63.263496,59.724823 63.347393,59.180229 63.639130,58.530914 
	C63.846962,58.426189 64.265251,58.222012 64.354156,58.291683 
	C64.443069,58.361355 64.661110,58.420483 64.834564,58.575554 
	C65.095673,58.390739 65.183334,58.050854 65.106415,57.509583 
	C64.616570,57.217640 64.291306,57.127083 63.637577,56.962372 
	C62.815865,56.240692 62.322613,55.593166 61.904358,54.710922 
	C61.979355,54.476204 62.146915,54.012745 62.444107,53.944328 
	C63.988976,50.099884 67.321381,54.230030 69.290573,52.209648 
	C70.115227,52.518867 70.683151,52.835106 71.524490,53.457840 
	C76.689804,55.021973 76.720970,50.342476 78.734985,48.084934 
z"/>
<path fill="#B0B1B4" opacity="1.000000" stroke="none" 
	d="
M17.894033,42.356064 
	C19.094337,42.947330 20.190802,43.828697 21.111994,44.865753 
	C22.558102,46.493748 23.885988,48.226761 25.630150,50.339733 
	C27.755144,55.134174 33.696793,58.729618 36.872391,57.350334 
	C36.063786,56.998226 35.257065,56.642452 34.220161,56.185169 
	C35.741119,55.108936 36.861736,54.315987 38.333157,53.334797 
	C39.444752,53.226608 40.205540,53.306660 40.953472,53.617229 
	C40.927670,54.155384 40.922176,54.463150 40.976997,55.107368 
	C41.378277,55.691662 41.726696,55.939640 42.044914,56.350258 
	C41.930004,56.732075 41.778790,56.885841 41.187531,57.106178 
	C40.537876,57.676193 40.261742,58.114227 40.003380,58.536926 
	C40.021156,58.521587 40.052040,58.485962 40.052040,58.485962 
	C37.595352,59.942528 35.138660,61.399097 32.030411,62.619102 
	C25.777617,62.679314 21.495331,60.949547 19.622677,55.104420 
	C19.310619,54.130386 18.128473,53.435120 17.348391,52.611034 
	C17.469461,49.312679 17.590534,46.014324 17.894033,42.356064 
z"/>
<path fill="#CDCED1" opacity="1.000000" stroke="none" 
	d="
M48.880127,72.943382 
	C45.033291,72.148911 41.186455,71.354431 36.340832,70.353676 
	C37.661091,69.006172 38.525700,68.123711 40.029305,67.075974 
	C42.448078,66.287430 44.227852,65.664169 46.007629,65.040901 
	C47.391815,64.988762 48.775997,64.936623 50.899467,64.974167 
	C53.531586,66.315926 55.424412,67.568008 57.317242,68.820084 
	C56.441341,69.816795 55.565441,70.813515 54.396507,71.816551 
	C53.739090,71.958275 53.374706,72.093681 52.633488,72.181107 
	C51.131142,72.403214 50.005634,72.673294 48.880127,72.943382 
z"/>
<path fill="#262627" opacity="1.000000" stroke="none" 
	d="
M54.689541,71.810226 
	C55.565441,70.813515 56.441341,69.816795 57.317242,68.820084 
	C55.424412,67.568008 53.531586,66.315926 51.303051,64.873154 
	C50.974445,64.035980 50.981548,63.389500 51.235649,62.345398 
	C51.647774,61.899101 51.812904,61.850426 52.281021,61.949127 
	C54.041164,61.662277 55.498318,61.228050 57.362637,60.841873 
	C58.353973,60.617584 58.938145,60.345245 59.510841,60.040802 
	C59.499363,60.008698 59.466862,60.068649 59.354893,60.492062 
	C59.726311,61.049603 60.209702,61.183735 60.691551,61.351715 
	C60.690018,61.385559 60.728321,61.441456 60.790974,61.480537 
	C60.853626,61.519623 60.929108,61.392677 60.424702,61.361748 
	C60.288490,62.980267 60.656685,64.629715 61.024879,66.279167 
	C61.999935,68.064705 62.974991,69.850243 63.908684,71.560051 
	C62.430595,71.702339 61.101364,71.830292 59.048660,71.980270 
	C57.519661,71.994766 56.714138,71.987244 55.599579,71.970200 
	C55.090210,71.910530 54.889877,71.860374 54.689541,71.810226 
z"/>
<path fill="#C6C7CA" opacity="1.000000" stroke="none" 
	d="
M17.254532,53.060699 
	C18.128473,53.435120 19.310619,54.130386 19.622677,55.104420 
	C21.495331,60.949547 25.777617,62.679314 31.669094,62.641163 
	C31.804264,62.952511 31.635836,62.981762 31.496023,63.061306 
	C22.252954,68.319954 20.982668,67.753746 17.812946,56.873322 
	C17.494915,55.781647 17.373394,54.632717 17.254532,53.060699 
z"/>
<path fill="#9F9FA1" opacity="1.000000" stroke="none" 
	d="
M68.008408,18.008410 
	C64.512772,16.645920 61.017132,15.283428 57.264973,13.653621 
	C57.186207,12.969687 57.363968,12.553067 57.541725,12.136449 
	C59.845181,11.530582 62.120579,10.725771 64.462891,10.395490 
	C65.809570,10.205600 67.264626,10.784419 68.670898,11.017203 
	C68.467003,12.131942 68.263100,13.246680 68.002213,15.053568 
	C67.966286,16.499949 67.987350,17.254179 68.008408,18.008410 
z"/>
<path fill="#B0B1B4" opacity="1.000000" stroke="none" 
	d="
M13.140289,49.104450 
	C13.738039,51.437347 14.335790,53.770241 14.582439,56.619698 
	C13.449629,57.485645 12.667919,57.835030 11.886209,58.184414 
	C10.658742,58.184414 9.431274,58.184414 8.393617,58.184414 
	C8.233068,56.417061 8.084669,54.783451 7.936271,53.149837 
	C8.095836,53.122627 8.255401,53.095413 8.414967,53.068203 
	C8.582485,51.280067 8.750004,49.491928 9.354185,47.354717 
	C10.690539,47.316391 11.590231,47.627144 12.652250,48.229683 
	C12.923148,48.715794 13.031718,48.910122 13.140289,49.104450 
z"/>
<path fill="#C6C7C9" opacity="1.000000" stroke="none" 
	d="
M26.088221,21.017998 
	C24.845226,21.789829 23.617584,22.587811 22.356253,23.328419 
	C19.042082,25.274378 16.830893,24.681307 16.123018,21.426405 
	C18.251350,19.641735 19.937195,18.228106 21.892298,16.588694 
	C22.521410,16.673632 23.900467,16.859819 25.623291,17.492661 
	C26.007446,18.965542 26.047832,19.991768 26.088221,21.017998 
z"/>
<path fill="#B6B7B9" opacity="1.000000" stroke="none" 
	d="
M31.656143,13.769093 
	C32.746815,8.338412 32.876183,8.317122 40.949310,12.497803 
	C38.313324,14.348800 37.123714,19.388798 32.309715,15.047808 
	C32.000240,14.956033 31.957468,15.022546 32.004642,14.679731 
	C31.919928,14.147643 31.788034,13.958367 31.656143,13.769093 
z"/>
<path fill="#B6B7B9" opacity="1.000000" stroke="none" 
	d="
M78.975548,74.987808 
	C79.045860,76.248360 79.116180,77.508911 79.204048,79.084145 
	C77.521805,79.705818 75.774292,80.749794 73.957436,80.889061 
	C72.652336,80.989105 71.254616,79.880760 69.898209,79.311485 
	C70.687492,78.212891 71.354088,76.990593 72.301231,76.051155 
	C73.213760,75.146049 74.416168,74.533203 75.930046,74.151146 
	C76.766418,74.688484 77.163971,74.866638 77.786705,74.942520 
	C78.011879,74.840248 78.506439,74.830940 78.506439,74.830940 
	C78.506439,74.830940 78.975548,74.987808 78.975548,74.987808 
z"/>
<path fill="#383839" opacity="1.000000" stroke="none" 
	d="
M38.802864,87.050041 
	C35.650822,86.839935 32.498779,86.629837 29.218781,85.750717 
	C30.060879,83.718346 31.030933,82.354980 32.108238,81.238388 
	C32.518738,81.665009 32.821991,81.844872 33.125244,82.024727 
	C34.357624,82.024727 35.590004,82.024727 37.858849,82.024727 
	C36.535313,83.476189 35.658825,84.437386 34.631741,85.563736 
	C35.685280,85.675133 36.912601,85.804909 38.495987,86.219971 
	C38.835655,86.686859 38.819260,86.868454 38.802864,87.050041 
z"/>
<path fill="#BDBEC1" opacity="1.000000" stroke="none" 
	d="
M73.409927,28.815830 
	C72.791786,30.690281 72.165268,32.589306 71.301193,35.208347 
	C69.476288,33.094204 68.332916,31.769611 66.689651,29.865896 
	C68.218407,28.889271 69.482529,28.081705 71.102783,27.228418 
	C71.465553,27.418930 71.583015,27.568066 72.053764,28.003647 
	C72.652557,28.519871 73.008904,28.662552 73.365250,28.805231 
	C73.365250,28.805231 73.401558,28.840405 73.409927,28.815830 
z"/>
<path fill="#585859" opacity="1.000000" stroke="none" 
	d="
M68.291138,18.045059 
	C67.987350,17.254179 67.966286,16.499949 67.976288,15.369444 
	C69.709290,14.794322 71.411209,14.595472 73.554726,14.345029 
	C73.485321,14.951663 73.337059,16.247663 73.217636,18.234001 
	C73.163727,19.616629 73.080963,20.308918 72.998207,21.001207 
	C71.523430,20.028040 70.048653,19.054874 68.291138,18.045059 
z"/>
<path fill="#A5A6A7" opacity="1.000000" stroke="none" 
	d="
M14.137283,58.995308 
	C14.507619,61.763611 14.877955,64.531914 15.248292,67.300217 
	C14.429908,67.439079 13.611523,67.577950 12.793139,67.716820 
	C12.322461,64.923340 11.851784,62.129860 11.990862,59.059174 
	C13.112840,58.853077 13.625062,58.924191 14.137283,58.995308 
z"/>
<path fill="#2E2E2F" opacity="1.000000" stroke="none" 
	d="
M47.956547,14.018378 
	C42.492069,15.883385 43.392982,9.366420 39.625488,8.996831 
	C40.138813,8.324515 40.652138,7.652199 41.165462,6.979883 
	C43.067657,8.561253 44.969852,10.142622 47.156166,12.194548 
	C47.612373,13.116196 47.784458,13.567287 47.956547,14.018378 
z"/>
<path fill="#585859" opacity="1.000000" stroke="none" 
	d="
M16.961060,74.997169 
	C16.138487,74.154266 15.315913,73.311363 14.493341,72.468460 
	C15.315404,72.114525 16.190887,71.847183 16.944494,71.382286 
	C17.697670,70.917648 18.256886,70.093849 19.042124,69.743668 
	C19.474440,69.550873 20.196926,70.008736 20.884249,70.824219 
	C21.082695,72.232048 21.185486,72.988914 20.967007,73.836884 
	C20.092604,74.292908 19.539469,74.657822 18.645199,74.993439 
	C17.856396,74.975151 17.408730,74.986160 16.961060,74.997169 
z"/>
<path fill="#C1C1C4" opacity="1.000000" stroke="none" 
	d="
M49.025066,61.771790 
	C48.286545,62.023293 47.548023,62.274799 46.176292,62.277142 
	C45.030014,61.343773 44.516941,60.659565 44.009357,59.725651 
	C44.014847,59.475945 43.998909,58.976669 44.013405,58.742432 
	C44.027897,58.508194 44.040043,58.038979 44.303780,58.014275 
	C44.919815,57.973282 45.272110,57.957001 46.043846,57.953228 
	C48.308346,58.311047 50.153400,58.656353 51.999229,59.000832 
	C52.000000,59.000000 52.001644,58.998318 51.679401,59.037567 
	C50.579796,59.975140 49.802429,60.873466 49.025066,61.771790 
z"/>
<path fill="#C1C1C4" opacity="1.000000" stroke="none" 
	d="
M10.132220,39.026390 
	C11.113127,39.647991 12.251810,40.120399 13.025164,40.938259 
	C13.647120,41.596008 13.826934,42.671833 13.806829,43.823380 
	C13.410727,44.084606 13.058891,44.021832 12.892279,43.746445 
	C11.512378,43.117371 10.299088,42.763680 9.085798,42.409992 
	C9.156312,40.963322 9.226827,39.516651 9.687736,38.274315 
	C10.096160,38.661228 10.114190,38.843807 10.132220,39.026390 
z"/>
<path fill="#2E2E2F" opacity="1.000000" stroke="none" 
	d="
M26.417229,20.963749 
	C26.047832,19.991768 26.007446,18.965542 25.959549,17.553162 
	C26.136539,16.258654 26.321041,15.350301 27.095242,14.316290 
	C28.449617,15.510839 29.214293,16.831047 29.978970,18.151257 
	C28.901392,19.070671 27.823812,19.990086 26.417229,20.963749 
z"/>
<path fill="#DDDEE1" opacity="1.000000" stroke="none" 
	d="
M57.021236,90.050674 
	C56.250122,89.621223 55.385460,89.300316 54.730618,88.735962 
	C53.830532,87.960220 53.089294,87.000183 52.235004,86.257477 
	C52.525112,85.724449 52.860210,85.053062 53.195305,84.381668 
	C53.890587,84.205482 54.585865,84.029305 55.672432,84.195427 
	C56.390263,85.013329 56.716808,85.488930 57.291889,86.017883 
	C57.951897,86.285294 58.363369,86.499344 58.455040,86.799904 
	C57.750755,87.605316 57.366280,88.324211 56.977440,89.295563 
	C56.989128,89.715561 57.005180,89.883118 57.021236,90.050674 
z"/>
<path fill="#DDDEE1" opacity="1.000000" stroke="none" 
	d="
M13.058891,44.021832 
	C13.058891,44.021832 13.410727,44.084606 13.578732,44.023727 
	C13.211761,44.969406 12.676785,45.975964 12.340658,47.458603 
	C12.539507,47.934685 12.489923,47.937893 12.489923,47.937897 
	C11.590231,47.627144 10.690539,47.316391 9.488939,46.989494 
	C8.633169,46.084362 8.079306,45.195374 8.168692,44.150433 
	C10.227592,44.003593 11.643241,44.012714 13.058891,44.021832 
z"/>
<path fill="#D3D4D7" opacity="1.000000" stroke="none" 
	d="
M60.884552,82.717773 
	C61.410229,82.473793 61.935902,82.229805 62.759499,82.279587 
	C63.057426,82.573364 62.985767,82.946358 63.081657,83.266243 
	C63.790054,84.725082 64.402565,85.864029 65.015068,87.002983 
	C64.238846,87.405396 63.462631,87.807808 62.406700,87.706215 
	C61.787998,86.312363 61.449001,85.422516 61.079674,84.229324 
	C60.994411,83.523239 60.939484,83.120506 60.884552,82.717773 
z"/>
<path fill="#F9F9F9" opacity="1.000000" stroke="none" 
	d="
M48.296856,13.986187 
	C47.784458,13.567287 47.612373,13.116196 47.489132,12.301037 
	C47.734573,10.014785 45.694572,6.835725 50.295349,7.480227 
	C50.617249,7.919493 50.786148,8.181051 50.546486,8.522673 
	C50.415665,9.195672 50.693401,9.788610 50.951042,10.414793 
	C50.930950,10.448041 50.976513,10.510978 50.525909,10.685947 
	C50.039013,11.756026 50.002724,12.651136 49.957836,13.561901 
	C49.949242,13.577557 49.960690,13.611297 49.960690,13.611298 
	C49.519516,13.725531 49.078339,13.839764 48.296856,13.986187 
z"/>
<path fill="#E8E8EA" opacity="1.000000" stroke="none" 
	d="
M23.432709,73.947151 
	C24.187967,75.160843 24.943226,76.374535 25.800083,78.023277 
	C25.901682,78.458328 25.968639,78.488487 25.719856,78.618103 
	C25.663244,79.174423 25.855413,79.601128 26.288874,80.022110 
	C26.530165,80.016380 27.012697,80.002968 26.902573,80.268677 
	C26.456835,80.976074 26.121223,81.417770 25.785610,81.859459 
	C24.852419,81.138817 23.919228,80.418175 23.227024,78.979233 
	C23.464771,77.263161 23.461535,76.265388 23.538120,75.026161 
	C23.656076,74.678635 23.749628,74.553520 23.721058,74.470375 
	C23.657301,74.284843 23.532585,74.120270 23.432709,73.947151 
z"/>
<path fill="#858688" opacity="1.000000" stroke="none" 
	d="
M60.929108,61.392677 
	C60.929108,61.392677 60.853626,61.519623 61.226570,61.341377 
	C62.198044,61.038929 62.796574,60.914722 63.395103,60.790516 
	C64.046722,60.819290 64.698349,60.848064 65.660919,61.284706 
	C65.974495,62.098282 65.977135,62.503990 65.979767,62.909695 
	C65.627533,63.738235 65.275291,64.566772 64.930534,65.743896 
	C64.938019,66.092476 64.793121,66.413765 64.420593,66.130409 
	C63.535503,66.005447 63.022934,66.163834 62.510361,66.322220 
	C62.510361,66.322220 62.505569,66.269341 62.246086,65.901489 
	C61.634106,64.153320 61.281605,62.772999 60.929108,61.392677 
M63.193237,62.741825 
	C63.134975,62.582153 63.076717,62.422485 63.018456,62.262814 
	C62.962780,62.423531 62.907104,62.584248 63.193237,62.741825 
z"/>
<path fill="#C6C7CA" opacity="1.000000" stroke="none" 
	d="
M32.000988,80.991615 
	C31.030933,82.354980 30.060879,83.718346 29.019093,85.427650 
	C28.295906,84.746651 27.644449,83.719719 27.337242,82.141083 
	C27.794291,80.869949 27.907091,80.150536 28.014053,79.459595 
	C28.008215,79.488083 27.988527,79.542786 27.988527,79.542786 
	C29.148983,79.520645 30.309439,79.498505 31.743490,79.971558 
	C32.011719,80.641701 32.006355,80.816658 32.000988,80.991615 
z"/>
<path fill="#D6D7D9" opacity="1.000000" stroke="none" 
	d="
M57.599648,11.724607 
	C57.363968,12.553067 57.186207,12.969687 56.977161,13.623495 
	C56.359978,13.777488 55.774082,13.694288 55.109360,12.881699 
	C54.675232,11.257807 54.319927,10.363305 53.951385,9.405874 
	C53.938145,9.342946 53.946735,9.214621 53.946735,9.214621 
	C55.108425,8.846505 56.270111,8.478391 57.657566,8.038734 
	C57.657566,9.177439 57.657566,10.245102 57.599648,11.724607 
z"/>
<path fill="#C6C7CA" opacity="1.000000" stroke="none" 
	d="
M30.355183,18.101702 
	C29.214293,16.831047 28.449617,15.510839 27.368782,14.090517 
	C27.782270,10.471972 29.272190,12.639842 30.821104,13.994705 
	C31.354225,14.655457 31.655846,14.839002 31.957468,15.022546 
	C31.957468,15.022546 32.000240,14.956033 31.970224,14.930748 
	C31.537271,15.954358 31.134333,17.003254 30.355183,18.101702 
z"/>
<path fill="#CBCCCF" opacity="1.000000" stroke="none" 
	d="
M26.716089,32.958530 
	C26.528389,33.932590 26.044434,34.856026 25.486109,35.921368 
	C24.187107,34.718700 23.266470,33.866333 21.991997,32.957615 
	C22.126568,32.003635 22.614975,31.106009 23.368603,30.049633 
	C24.562494,30.896557 25.491165,31.902231 26.716089,32.958530 
z"/>
<path fill="#DDDEE1" opacity="1.000000" stroke="none" 
	d="
M53.967541,8.925075 
	C53.946735,9.214621 53.938145,9.342946 53.861847,9.840389 
	C53.853870,11.223027 53.922188,12.108222 53.990505,12.993416 
	C52.864670,13.319770 51.738831,13.646124 50.286842,13.791887 
	C49.960690,13.611297 49.949242,13.577557 50.252556,13.387856 
	C50.696083,12.302430 50.836300,11.406704 50.976513,10.510978 
	C50.976513,10.510978 50.930950,10.448041 51.110928,10.226933 
	C51.612270,9.833387 51.778732,9.564914 51.945908,8.888003 
	C52.478512,8.316918 52.855499,8.058233 53.232487,7.799549 
	C53.484440,8.078209 53.736393,8.356869 53.967541,8.925075 
z"/>
<path fill="#E8E8EA" opacity="1.000000" stroke="none" 
	d="
M89.963234,57.995346 
	C89.686020,58.719162 89.408806,59.442974 89.131592,60.166786 
	C87.446098,59.398476 85.760597,58.630161 84.328369,57.483650 
	C84.581635,57.105453 84.950493,57.033489 85.277664,57.101097 
	C86.386780,56.816185 87.168709,56.463665 87.936615,56.420959 
	C88.285019,57.155613 88.647446,57.580456 89.248657,58.045258 
	C89.487442,58.085224 89.963234,57.995346 89.963234,57.995346 
z"/>
<path fill="#414143" opacity="1.000000" stroke="none" 
	d="
M45.793606,64.741982 
	C44.227852,65.664169 42.448078,66.287430 40.302940,66.866470 
	C40.740326,63.473011 43.015915,63.616455 45.793606,64.741982 
z"/>
<path fill="#262627" opacity="1.000000" stroke="none" 
	d="
M23.463728,73.969574 
	C23.532585,74.120270 23.657301,74.284843 23.721058,74.470375 
	C23.749628,74.553520 23.656076,74.678635 23.208763,75.058929 
	C21.836329,76.224876 20.873075,77.116600 19.909824,78.008316 
	C19.646391,77.925217 19.422375,77.780930 19.304478,77.050598 
	C19.242897,76.024742 19.114614,75.523743 18.986336,75.022736 
	C19.539469,74.657822 20.092604,74.292908 21.333483,73.976372 
	C22.535294,74.025108 23.049358,74.025467 23.563423,74.025818 
	C23.563423,74.025818 23.494747,73.991997 23.463728,73.969574 
z"/>
<path fill="#D6D7D9" opacity="1.000000" stroke="none" 
	d="
M43.998909,58.976669 
	C43.998909,58.976669 44.014847,59.475945 43.741508,59.767311 
	C43.292854,60.102512 43.117538,60.146351 42.942219,60.190186 
	C42.144653,59.785545 41.347092,59.380905 40.300785,58.731113 
	C40.052040,58.485962 40.021156,58.521587 40.365372,58.396175 
	C40.993412,57.838577 41.277237,57.406391 41.561058,56.974201 
	C41.778790,56.885841 41.930004,56.732075 42.186844,56.074787 
	C42.423561,55.440487 42.488144,55.244297 42.776543,55.228714 
	C43.343624,55.992008 43.686893,56.574692 43.796963,57.158768 
	C43.300678,57.368855 43.170238,57.641136 43.222946,58.202442 
	C43.449497,58.697735 43.691315,58.880665 43.998909,58.976669 
z"/>
<path fill="#1A1A1B" opacity="1.000000" stroke="none" 
	d="
M49.156563,73.128769 
	C50.005634,72.673294 51.131142,72.403214 52.668777,72.449631 
	C53.391457,73.180725 53.702007,73.595329 54.083214,74.392815 
	C54.240334,75.020454 54.326786,75.265205 54.482246,75.697472 
	C54.551258,75.884987 54.367794,76.240021 54.041718,76.165367 
	C53.493267,76.073868 53.270897,76.057030 53.048531,76.040199 
	C51.843353,75.131516 50.638176,74.222839 49.156563,73.128769 
z"/>
<path fill="#D3D3D6" opacity="1.000000" stroke="none" 
	d="
M79.401993,75.137909 
	C78.975548,74.987808 78.506439,74.830940 78.506439,74.830940 
	C78.506439,74.830940 78.011879,74.840248 77.615280,74.631866 
	C77.047447,74.260551 76.876213,74.097618 76.704987,73.934685 
	C77.212181,73.191544 77.719376,72.448395 78.753494,72.078812 
	C80.184387,72.602974 81.088356,72.753571 81.992332,72.904167 
	C82.420097,73.210396 82.847870,73.516632 83.275635,73.822861 
	C82.126572,74.311249 80.977509,74.799629 79.401993,75.137909 
z"/>
<path fill="#BABBBD" opacity="1.000000" stroke="none" 
	d="
M38.877060,87.419449 
	C38.819260,86.868454 38.835655,86.686859 38.856121,86.231812 
	C39.337044,85.261902 39.813892,84.565453 40.618435,84.159073 
	C41.041077,84.709251 41.136021,84.969353 41.230961,85.229462 
	C41.159924,86.811707 41.088890,88.393951 41.017857,89.976204 
	C40.549221,89.994087 40.080585,90.011963 39.611954,90.029846 
	C39.391724,89.282852 39.171494,88.535858 38.877060,87.419449 
z"/>
<path fill="#C6C7C9" opacity="1.000000" stroke="none" 
	d="
M19.903492,78.351761 
	C20.873075,77.116600 21.836329,76.224876 23.128937,75.300392 
	C23.461535,76.265388 23.464771,77.263161 23.258583,78.588150 
	C21.998491,78.841980 20.947826,78.768585 19.903492,78.351761 
z"/>
<path fill="#2E2E2F" opacity="1.000000" stroke="none" 
	d="
M65.313568,87.018677 
	C64.402565,85.864029 63.790054,84.725082 63.424038,83.116653 
	C64.757370,83.052361 65.844208,83.457535 66.931046,83.862709 
	C65.526978,84.518867 70.476097,87.817070 65.313568,87.018677 
z"/>
<path fill="#E8E8EA" opacity="1.000000" stroke="none" 
	d="
M49.228340,90.121330 
	C48.860149,88.177666 48.491955,86.233994 48.467403,84.617279 
	C48.889046,85.303543 48.967049,85.662842 49.092323,86.296646 
	C49.462593,86.675560 49.785599,86.779968 50.108601,86.884377 
	C50.480648,87.070328 50.852695,87.256279 50.793472,87.721375 
	C49.984249,88.707458 49.606293,89.414398 49.228340,90.121330 
z"/>
<path fill="#262627" opacity="1.000000" stroke="none" 
	d="
M61.110008,84.532669 
	C61.449001,85.422516 61.787998,86.312363 62.149761,87.560135 
	C61.990177,87.940804 61.807819,87.963539 61.010475,87.895798 
	C59.928154,87.824883 59.460823,87.844444 58.980858,87.568375 
	C58.903763,87.086281 58.839302,86.899834 58.774841,86.713394 
	C58.363369,86.499344 57.951897,86.285294 57.334175,85.761963 
	C57.428230,85.286827 57.728539,85.120964 58.426956,84.982086 
	C59.586712,84.850273 60.348358,84.691475 61.110008,84.532669 
z"/>
<path fill="#383839" opacity="1.000000" stroke="none" 
	d="
M82.076355,72.775818 
	C81.088356,72.753571 80.184387,72.602974 79.145073,72.180794 
	C79.446983,71.268097 79.884232,70.626976 80.658974,70.349487 
	C81.348450,71.262177 81.700432,71.811234 82.052414,72.360291 
	C82.052414,72.360291 82.160385,72.647476 82.076355,72.775818 
z"/>
<path fill="#DDDEE1" opacity="1.000000" stroke="none" 
	d="
M67.002350,83.467087 
	C65.844208,83.457535 64.757370,83.052361 63.328148,82.796768 
	C62.985767,82.946358 63.057426,82.573364 63.054482,82.383522 
	C64.908089,80.122589 66.419434,79.633286 67.002350,83.467087 
z"/>
<path fill="#D3D3D6" opacity="1.000000" stroke="none" 
	d="
M49.356777,61.808571 
	C49.802429,60.873466 50.579796,59.975140 51.689899,59.387974 
	C52.007771,60.400005 51.992901,61.100876 51.978035,61.801750 
	C51.812904,61.850426 51.647774,61.899101 51.235298,62.021965 
	C50.554794,62.012554 50.121639,61.928951 49.356777,61.808571 
z"/>
<path fill="#CBCCCF" opacity="1.000000" stroke="none" 
	d="
M90.278450,57.827961 
	C89.963234,57.995346 89.487442,58.085224 89.361023,57.673061 
	C89.122391,56.495140 89.010178,55.729382 88.897964,54.963623 
	C89.411407,54.710751 89.924850,54.457878 90.438293,54.205002 
	C90.490082,55.356861 90.541878,56.508717 90.278450,57.827961 
z"/>
<path fill="#2E2E2F" opacity="1.000000" stroke="none" 
	d="
M10.451981,38.949440 
	C10.114190,38.843807 10.096160,38.661228 10.045656,38.205372 
	C10.135215,37.153458 10.257247,36.374825 10.379280,35.596191 
	C10.781224,35.645645 11.183167,35.695099 11.585112,35.744553 
	C11.313988,36.787197 11.042864,37.829842 10.451981,38.949440 
z"/>
<path fill="#858688" opacity="1.000000" stroke="none" 
	d="
M55.908611,71.979721 
	C56.714138,71.987244 57.519661,71.994766 58.729858,71.989899 
	C58.951443,73.272339 58.768356,74.567177 58.207298,75.624725 
	C57.240883,74.543655 56.652431,73.699875 56.039360,72.634476 
	C56.014744,72.412865 55.908611,71.979729 55.908611,71.979721 
z"/>
<path fill="#CBCCCF" opacity="1.000000" stroke="none" 
	d="
M58.993496,87.864014 
	C59.460823,87.844444 59.928154,87.824883 60.734825,87.894852 
	C59.986023,88.692299 58.897884,89.400208 57.415489,90.079391 
	C57.005180,89.883118 56.989128,89.715561 57.301430,89.346146 
	C58.084358,88.717529 58.538925,88.290771 58.993496,87.864014 
z"/>
<path fill="#414143" opacity="1.000000" stroke="none" 
	d="
M42.963356,60.521049 
	C43.117538,60.146351 43.292854,60.102512 43.736019,60.017017 
	C44.516941,60.659565 45.030014,61.343773 45.774952,62.254211 
	C44.999378,61.937595 43.991936,61.394753 42.963356,60.521049 
z"/>
<path fill="#656565" opacity="1.000000" stroke="none" 
	d="
M54.367794,76.240021 
	C54.367794,76.240021 54.551258,75.884987 54.731323,75.571365 
	C55.273109,75.174255 55.634834,75.090759 56.026783,75.267120 
	C56.112171,75.692421 56.167332,75.857872 56.222488,76.023323 
	C55.717052,76.420303 55.211617,76.817284 54.553493,76.868057 
	C54.400803,76.521843 54.367794,76.240021 54.367794,76.240021 
z"/>
<path fill="#0E0D0E" opacity="1.000000" stroke="none" 
	d="
M46.243652,78.775131 
	C46.586597,78.213676 46.992470,77.932205 47.398338,77.650726 
	C47.508110,78.067627 47.617886,78.484520 47.727661,78.901421 
	C47.253967,78.952644 46.780277,79.003868 46.243652,78.775131 
z"/>
<path fill="#D6D7D9" opacity="1.000000" stroke="none" 
	d="
M73.440567,21.031483 
	C73.080963,20.308918 73.163727,19.616629 73.146194,18.586861 
	C73.477837,18.141325 73.909790,18.033268 74.813469,17.985540 
	C75.285202,18.045870 75.510284,17.801832 75.510284,17.801834 
	C74.967834,18.888475 74.425385,19.975117 73.440567,21.031483 
z"/>
<path fill="#CBCCCF" opacity="1.000000" stroke="none" 
	d="
M61.079674,84.229324 
	C60.348358,84.691475 59.586712,84.850273 58.360443,84.668762 
	C57.943691,83.907784 57.991562,83.487122 58.039433,83.066452 
	C58.752811,82.994720 59.466194,82.922997 60.532063,82.784523 
	C60.939484,83.120506 60.994411,83.523239 61.079674,84.229324 
z"/>
<path fill="#CDCED1" opacity="1.000000" stroke="none" 
	d="
M23.478745,73.663742 
	C23.049358,74.025467 22.535294,74.025108 21.654753,73.885269 
	C21.185486,72.988914 21.082695,72.232048 20.983379,71.092567 
	C21.789259,71.573860 22.591663,72.437767 23.478745,73.663742 
z"/>
<path fill="#CBCCCF" opacity="1.000000" stroke="none" 
	d="
M78.097099,20.034435 
	C78.512329,19.363970 78.927551,18.693504 79.342781,18.023039 
	C79.485863,18.945536 79.628937,19.868032 79.303772,20.756823 
	C78.589386,20.493555 78.343246,20.263994 78.097099,20.034435 
z"/>
<path fill="#858688" opacity="1.000000" stroke="none" 
	d="
M57.744881,83.021667 
	C57.991562,83.487122 57.943691,83.907784 57.962334,84.641777 
	C57.728539,85.120964 57.428230,85.286827 57.085640,85.708603 
	C56.716808,85.488930 56.390263,85.013329 56.032410,84.209732 
	C56.484177,83.580109 56.967251,83.278496 57.744881,83.021667 
z"/>
<path fill="#414143" opacity="1.000000" stroke="none" 
	d="
M12.892279,43.746445 
	C11.643241,44.012714 10.227592,44.003593 8.390283,43.945057 
	C8.136608,43.634350 8.304592,43.373058 8.779186,42.760880 
	C10.299088,42.763680 11.512378,43.117371 12.892279,43.746445 
z"/>
<path fill="#A5A6A7" opacity="1.000000" stroke="none" 
	d="
M60.424702,61.361748 
	C61.281605,62.772999 61.634106,64.153320 62.219582,65.903023 
	C62.214714,66.294395 61.976868,66.316399 61.381950,66.308777 
	C60.656685,64.629715 60.288490,62.980267 60.424702,61.361748 
z"/>
<path fill="#4B4B4D" opacity="1.000000" stroke="none" 
	d="
M14.398453,58.980713 
	C13.625062,58.924191 13.112840,58.853077 12.215235,58.734303 
	C11.829853,58.686646 11.760833,58.424458 11.823521,58.304436 
	C12.667919,57.835030 13.449629,57.485645 14.525197,56.986797 
	C14.765910,57.546932 14.712767,58.256527 14.398453,58.980713 
z"/>
<path fill="#4B4B4D" opacity="1.000000" stroke="none" 
	d="
M87.950638,56.111141 
	C87.168709,56.463665 86.386780,56.816185 85.319580,56.736149 
	C84.975800,55.852680 84.917274,55.401768 84.858749,54.950851 
	C84.858757,54.950851 84.912148,54.930592 85.261978,55.093288 
	C85.872787,55.168613 86.133781,55.081242 86.394783,54.993866 
	C86.752235,54.960350 87.109680,54.926830 87.736084,55.222404 
	C87.986900,55.738045 87.968773,55.924591 87.950638,56.111141 
z"/>
<path fill="#1A1A1B" opacity="1.000000" stroke="none" 
	d="
M56.512676,76.018845 
	C56.167332,75.857872 56.112171,75.692421 56.032524,74.994308 
	C56.001736,74.279884 55.995434,74.098106 56.002426,73.650894 
	C56.031815,73.209000 56.047897,73.032547 56.063980,72.856094 
	C56.652431,73.699875 57.240883,74.543655 57.897476,75.700493 
	C57.578037,76.013824 57.190453,76.014099 56.512676,76.018845 
z"/>
<path fill="#D6D7D9" opacity="1.000000" stroke="none" 
	d="
M18.645199,74.993439 
	C19.114614,75.523743 19.242897,76.024742 19.203054,76.876282 
	C18.360357,76.717003 17.685785,76.207184 16.986137,75.347267 
	C17.408730,74.986160 17.856396,74.975151 18.645199,74.993439 
z"/>
<path fill="#A5A6A7" opacity="1.000000" stroke="none" 
	d="
M49.045052,86.022148 
	C48.967049,85.662842 48.889046,85.303543 48.830250,84.668930 
	C49.320274,84.275742 49.791088,84.157860 50.690628,84.375580 
	C51.088394,85.169289 51.057430,85.627403 51.026470,86.085518 
	C50.854763,86.056282 50.683056,86.027054 50.013344,85.974640 
	C49.515339,85.951447 49.045052,86.022148 49.045052,86.022148 
z"/>
<path fill="#858688" opacity="1.000000" stroke="none" 
	d="
M51.134060,86.177757 
	C51.057430,85.627403 51.088394,85.169289 51.054764,84.372086 
	C51.505577,84.010117 52.020977,83.987244 52.865841,84.173019 
	C52.860210,85.053062 52.525112,85.724449 51.830215,86.249252 
	C51.470417,86.102669 51.241650,86.269997 51.134060,86.177757 
z"/>
<path fill="#656565" opacity="1.000000" stroke="none" 
	d="
M12.652250,48.229679 
	C12.489923,47.937893 12.539507,47.934685 12.510175,47.947449 
	C13.024287,47.795502 13.567733,47.630798 14.111177,47.466091 
	C13.979847,47.945194 13.848516,48.424301 13.428738,49.003929 
	C13.031718,48.910122 12.923148,48.715794 12.652250,48.229679 
z"/>
<path fill="#656565" opacity="1.000000" stroke="none" 
	d="
M49.541492,90.085480 
	C49.606293,89.414398 49.984249,88.707458 50.697990,88.024155 
	C50.640736,88.715065 50.247692,89.382347 49.541492,90.085480 
z"/>
<path fill="#CBCCCF" opacity="1.000000" stroke="none" 
	d="
M89.007515,51.978939 
	C88.356506,51.506573 87.705490,51.034206 87.054482,50.561844 
	C87.662376,50.413780 88.270264,50.265717 88.950684,50.757744 
	C89.017982,51.591537 89.012749,51.785240 89.007515,51.978939 
z"/>
<path fill="#D3D4D7" opacity="1.000000" stroke="none" 
	d="
M27.768814,79.269043 
	C27.988527,79.542786 28.008215,79.488083 27.780733,79.635094 
	C27.373066,79.855728 27.192883,79.929352 27.012697,80.002968 
	C27.012697,80.002968 26.530165,80.016380 26.248539,79.638199 
	C25.967489,79.002831 25.968065,78.745659 25.968639,78.488487 
	C25.968639,78.488487 25.901682,78.458328 25.903519,78.421768 
	C26.453268,78.588570 27.001184,78.791939 27.768814,79.269043 
z"/>
<path fill="#414143" opacity="1.000000" stroke="none" 
	d="
M26.902573,80.268677 
	C27.192883,79.929352 27.373066,79.855728 27.786572,79.606613 
	C27.907091,80.150536 27.794291,80.869949 27.374355,81.797089 
	C26.851925,81.995575 26.636629,81.986343 26.103470,81.918282 
	C26.121223,81.417770 26.456835,80.976074 26.902573,80.268677 
z"/>
<path fill="#0E0D0E" opacity="1.000000" stroke="none" 
	d="
M42.080223,77.973053 
	C41.611725,77.717247 41.143227,77.461441 40.674728,77.205627 
	C41.026672,77.038361 41.378620,76.871094 41.882641,77.106415 
	C42.034718,77.509010 42.080223,77.973053 42.080223,77.973053 
z"/>
<path fill="#F9F9F9" opacity="1.000000" stroke="none" 
	d="
M78.016098,20.380394 
	C78.343246,20.263994 78.589386,20.493555 78.971390,20.941280 
	C78.924309,21.675697 78.741364,22.191952 78.558426,22.708204 
	C78.350655,22.047588 78.142876,21.386972 78.016098,20.380394 
z"/>
<path fill="#A5A6A7" opacity="1.000000" stroke="none" 
	d="
M53.033516,7.511752 
	C52.855499,8.058233 52.478512,8.316918 51.700661,8.738720 
	C51.184875,8.748761 51.069962,8.595685 50.955048,8.442610 
	C50.786148,8.181051 50.617249,7.919493 50.651360,7.482019 
	C51.514431,7.278722 52.174488,7.251338 53.033516,7.511752 
z"/>
<path fill="#414143" opacity="1.000000" stroke="none" 
	d="
M87.936615,56.420956 
	C87.968773,55.924591 87.986900,55.738045 88.004089,55.270256 
	C88.003151,54.989021 88.450981,54.991009 88.674469,54.977318 
	C89.010178,55.729382 89.122391,56.495140 89.122238,57.633095 
	C88.647446,57.580456 88.285019,57.155613 87.936615,56.420956 
z"/>
<path fill="#C6C7CA" opacity="1.000000" stroke="none" 
	d="
M82.363464,72.250870 
	C81.700432,71.811234 81.348450,71.262177 80.985458,70.350067 
	C81.541130,70.705170 82.107826,71.423309 82.363464,72.250870 
z"/>
<path fill="#DDDEE1" opacity="1.000000" stroke="none" 
	d="
M89.268356,52.146729 
	C89.012749,51.785240 89.017982,51.591537 89.041153,51.107735 
	C89.679337,51.159466 90.299599,51.501308 90.919853,51.843147 
	C90.456299,52.000267 89.992752,52.157391 89.268356,52.146729 
z"/>
<path fill="#585859" opacity="1.000000" stroke="none" 
	d="
M54.206825,13.033325 
	C53.922188,12.108222 53.853870,11.223027 53.875088,9.903318 
	C54.319927,10.363305 54.675232,11.257807 54.946808,12.611578 
	C54.863079,13.070848 54.423145,13.073236 54.206825,13.033325 
z"/>
<path fill="#A5A6A7" opacity="1.000000" stroke="none" 
	d="
M32.108238,81.238388 
	C32.006355,80.816658 32.011719,80.641701 32.023880,80.204285 
	C32.469700,80.374626 32.908718,80.807434 33.236488,81.632484 
	C32.821991,81.844872 32.518738,81.665009 32.108238,81.238388 
z"/>
<path fill="#B0B1B4" opacity="1.000000" stroke="none" 
	d="
M84.491898,54.946022 
	C84.917274,55.401768 84.975800,55.852680 84.992409,56.668541 
	C84.950493,57.033489 84.581635,57.105453 84.394638,57.086914 
	C84.180115,56.359314 84.152588,55.650253 84.491898,54.946022 
z"/>
<path fill="#262627" opacity="1.000000" stroke="none" 
	d="
M42.311550,77.959442 
	C42.080223,77.973053 42.034718,77.509010 42.031410,77.276367 
	C42.433182,77.186859 42.838257,77.330002 43.243332,77.473145 
	C43.009850,77.630707 42.776363,77.788269 42.311550,77.959442 
z"/>
<path fill="#B0B1B4" opacity="1.000000" stroke="none" 
	d="
M86.374619,54.582111 
	C86.133781,55.081242 85.872787,55.168613 85.241333,55.073566 
	C84.806747,54.390453 84.742645,53.889755 84.678543,53.389061 
	C85.237183,53.649494 85.795822,53.909927 86.374619,54.582111 
z"/>
<path fill="#D3D4D7" opacity="1.000000" stroke="none" 
	d="
M73.258011,28.491280 
	C73.008904,28.662552 72.652557,28.519871 72.128624,28.137749 
	C72.357620,27.991312 72.754196,28.084322 73.258011,28.491280 
z"/>
<path fill="#A5A6A7" opacity="1.000000" stroke="none" 
	d="
M62.988476,66.501602 
	C63.022934,66.163834 63.535503,66.005447 64.245209,66.113190 
	C64.117096,66.479881 63.791843,66.580429 62.988476,66.501602 
z"/>
<path fill="#383839" opacity="1.000000" stroke="none" 
	d="
M78.458176,68.454773 
	C78.535690,68.402855 78.555351,68.614250 78.555351,68.614250 
	C78.555351,68.614250 78.380653,68.506691 78.458176,68.454773 
z"/>
<path fill="#D3D3D6" opacity="1.000000" stroke="none" 
	d="
M84.717384,71.279198 
	C84.710785,71.578911 84.498512,71.649208 84.286232,71.719498 
	C84.361389,71.496254 84.436546,71.273018 84.717384,71.279198 
z"/>
<path fill="#858688" opacity="1.000000" stroke="none" 
	d="
M49.092323,86.296646 
	C49.045052,86.022148 49.515339,85.951447 49.752090,85.972748 
	C49.988838,85.994041 50.052128,86.438766 50.080364,86.661575 
	C49.785599,86.779968 49.462593,86.675560 49.092323,86.296646 
z"/>
<path fill="#0E0D0E" opacity="1.000000" stroke="none" 
	d="
M45.479874,74.467339 
	C45.520176,74.446312 45.439571,74.488365 45.479874,74.467339 
z"/>
<path fill="#BABBBD" opacity="1.000000" stroke="none" 
	d="
M41.029724,84.042305 
	C41.352924,84.106880 41.592529,84.578285 41.531548,85.139580 
	C41.136021,84.969353 41.041077,84.709251 41.029724,84.042305 
z"/>
<path fill="#656565" opacity="1.000000" stroke="none" 
	d="
M32.004642,14.679731 
	C31.655846,14.839002 31.354225,14.655457 31.095476,14.173604 
	C31.138350,13.875296 31.362255,13.648695 31.509199,13.708894 
	C31.788034,13.958367 31.919928,14.147643 32.004642,14.679731 
z"/>
<path fill="#383839" opacity="1.000000" stroke="none" 
	d="
M76.612213,73.868706 
	C76.876213,74.097618 77.047447,74.260551 77.390106,74.734146 
	C77.163971,74.866638 76.766418,74.688484 76.334190,74.185989 
	C76.299515,73.861641 76.519440,73.802727 76.612213,73.868706 
z"/>
<path fill="#585859" opacity="1.000000" stroke="none" 
	d="
M75.153938,17.944260 
	C75.123489,17.614445 75.224304,17.386242 75.325127,17.158039 
	C75.494659,17.326498 75.664185,17.494957 75.671997,17.732624 
	C75.510284,17.801832 75.285202,18.045870 75.153938,17.944260 
z"/>
<path fill="#262627" opacity="1.000000" stroke="none" 
	d="
M54.041718,76.165367 
	C54.367794,76.240021 54.400803,76.521843 54.389294,76.660309 
	C54.037743,76.693764 53.697701,76.588745 53.203094,76.261963 
	C53.270897,76.057030 53.493267,76.073868 54.041718,76.165367 
z"/>
<path fill="#B6B7B9" opacity="1.000000" stroke="none" 
	d="
M55.013287,28.988640 
	C55.829239,29.547710 56.645191,30.106781 57.731285,31.218206 
	C58.630707,34.720783 60.148262,34.448154 62.023159,32.879028 
	C63.159466,33.495140 64.295776,34.111252 65.732643,35.244217 
	C66.295822,37.169567 66.558441,38.578060 66.843750,40.108292 
	C64.485817,41.449680 62.242313,42.725971 59.611664,43.993633 
	C57.151028,42.650948 55.077541,41.316891 53.065929,39.652985 
	C53.542957,38.388348 53.958111,37.453560 54.609596,35.986629 
	C51.337582,35.986629 48.689823,35.986629 46.035446,35.613487 
	C46.027008,34.494061 46.025188,33.747772 46.363434,32.960865 
	C48.680195,33.017601 50.656895,33.114956 52.686588,33.214924 
	C53.446495,31.834610 54.229893,30.411625 55.013287,28.988640 
z"/>
<path fill="#C6C7C9" opacity="1.000000" stroke="none" 
	d="
M59.998814,44.002258 
	C62.242313,42.725971 64.485817,41.449680 66.843750,40.108292 
	C66.558441,38.578060 66.295822,37.169567 66.029205,35.371265 
	C67.223251,35.494270 68.421303,36.007088 69.762733,37.148350 
	C69.541161,39.652462 69.176208,41.528126 68.740677,43.813828 
	C68.618805,44.496456 68.567520,44.769054 68.263412,45.266090 
	C66.301460,48.044476 66.175453,50.357582 69.033844,52.216671 
	C67.321381,54.230030 63.988976,50.099884 62.297012,53.621983 
	C61.284088,53.897709 60.715454,54.427368 59.873253,54.974766 
	C59.417625,55.008545 59.235565,55.024582 58.796528,55.029343 
	C58.368080,55.015846 58.196609,55.013626 57.970711,54.686203 
	C56.261631,51.661232 54.654942,49.069923 59.336731,47.530560 
	C59.884865,47.350330 59.793640,45.225567 59.998814,44.002258 
z"/>
<path fill="#CBCCCF" opacity="1.000000" stroke="none" 
	d="
M37.001297,26.014015 
	C35.548862,26.585304 34.096432,27.156593 32.326145,27.869188 
	C32.576206,26.577164 32.822231,24.190338 33.766418,23.871592 
	C38.454208,22.289051 43.282887,20.962086 48.164680,20.234417 
	C49.324699,20.061508 50.879681,22.538322 52.966988,24.450386 
	C56.673443,24.455303 56.673443,24.455303 54.869225,27.627243 
	C52.908810,27.803011 51.433704,27.859907 49.918564,27.559380 
	C48.723972,25.272036 49.561935,21.393818 45.282570,22.520454 
	C43.299221,23.042612 41.260250,23.401501 39.339817,24.093412 
	C38.445713,24.415543 37.773884,25.354601 37.001297,26.014015 
z"/>
<path fill="#BABBBD" opacity="1.000000" stroke="none" 
	d="
M49.958599,27.916805 
	C51.433704,27.859907 52.908810,27.803011 54.681030,27.884428 
	C54.978149,28.022741 54.994560,28.505871 55.003922,28.747253 
	C54.229893,30.411625 53.446495,31.834610 52.686588,33.214924 
	C50.656895,33.114956 48.680195,33.017601 46.113792,32.749580 
	C45.361149,31.737755 45.198215,30.896587 45.303814,29.826565 
	C47.034431,29.037407 48.496513,28.477106 49.958599,27.916805 
z"/>
<path fill="#414143" opacity="1.000000" stroke="none" 
	d="
M68.516235,45.041649 
	C68.567520,44.769054 68.618805,44.496456 69.151169,43.933403 
	C71.011871,43.919151 72.391495,44.195358 73.942879,44.634304 
	C74.114639,44.797039 74.559807,44.960350 74.559807,44.960350 
	C74.559807,44.960350 75.020668,44.848469 75.295021,44.979797 
	C76.007187,45.520348 76.445000,45.929573 76.882812,46.338795 
	C77.332664,46.868343 77.782524,47.397888 78.483681,48.006184 
	C76.720970,50.342476 76.689804,55.021973 71.934875,53.343357 
	C73.036591,51.649242 74.893944,50.239506 74.725647,49.139767 
	C74.541771,47.938328 72.549622,46.926136 71.216560,46.021725 
	C70.448395,45.500561 69.424835,45.355824 68.516235,45.041649 
z"/>
<path fill="#B3B4B6" opacity="1.000000" stroke="none" 
	d="
M73.771118,44.471569 
	C72.391495,44.195358 71.011871,43.919151 69.221756,43.523365 
	C69.176208,41.528126 69.541161,39.652462 69.955040,37.414772 
	C71.100815,37.347672 72.197655,37.642593 73.643951,38.433868 
	C73.919312,40.777340 73.845215,42.624454 73.771118,44.471569 
z"/>
<path fill="#C6C7C9" opacity="1.000000" stroke="none" 
	d="
M73.942879,44.634304 
	C73.845215,42.624454 73.919312,40.777340 73.984886,38.475346 
	C78.209396,37.727100 75.887177,40.589813 75.784775,42.793373 
	C75.371849,43.827648 75.196259,44.338058 75.020668,44.848469 
	C75.020668,44.848469 74.559807,44.960350 74.559807,44.960350 
	C74.559807,44.960350 74.114639,44.797039 73.942879,44.634304 
z"/>
<path fill="#C6C7C9" opacity="1.000000" stroke="none" 
	d="
M61.929871,32.540573 
	C60.148262,34.448154 58.630707,34.720783 57.976761,31.410824 
	C59.246925,31.434763 60.541752,31.818438 61.929871,32.540573 
z"/>
<path fill="#D6D7D9" opacity="1.000000" stroke="none" 
	d="
M75.295021,44.979797 
	C75.196259,44.338058 75.371849,43.827648 75.772537,43.157684 
	C76.310036,43.867168 76.622437,44.736206 76.908829,45.972019 
	C76.445000,45.929573 76.007187,45.520348 75.295021,44.979797 
z"/>
<path fill="#CBCCCF" opacity="1.000000" stroke="none" 
	d="
M28.835106,29.788435 
	C28.881731,30.299364 28.692411,30.558060 28.217171,30.881809 
	C27.848139,30.534060 27.690445,30.066666 27.532753,29.599270 
	C27.913084,29.596445 28.293417,29.593618 28.835106,29.788435 
z"/>
<path fill="#BDBEC1" opacity="1.000000" stroke="none" 
	d="
M29.014420,44.019722 
	C28.692688,40.625019 31.348577,41.089752 33.317299,40.757664 
	C35.242737,40.432880 37.191235,40.244781 39.682346,40.209724 
	C40.439171,40.689663 40.696327,40.887611 41.004730,41.428711 
	C41.002903,43.672642 41.002903,45.504478 41.002903,48.281620 
	C42.594837,47.062889 43.288330,46.531975 44.302444,46.139908 
	C45.742416,46.528835 46.861763,46.778912 47.928787,47.338577 
	C47.255196,48.104954 46.633926,48.561741 45.665802,49.018570 
	C44.255302,49.995144 43.191662,50.971676 41.796005,51.811623 
	C40.323143,51.453632 39.182293,51.232231 37.748199,50.856823 
	C37.450283,49.488556 37.246445,48.232441 37.490635,47.070477 
	C37.806099,45.569332 38.479588,44.143425 39.269325,41.925758 
	C35.041920,42.788960 32.028168,43.404343 29.014420,44.019722 
z"/>
<path fill="#BDBEC1" opacity="1.000000" stroke="none" 
	d="
M37.982353,53.523037 
	C36.861736,54.315987 35.741119,55.108936 34.220161,56.185169 
	C35.257065,56.642452 36.063786,56.998226 36.872391,57.350334 
	C33.696793,58.729618 27.755144,55.134174 25.981728,50.394268 
	C26.735785,49.023811 27.504477,48.023254 28.957958,47.155968 
	C32.114239,48.866844 34.585728,50.444443 37.071873,52.347725 
	C37.385136,52.956615 37.683746,53.239826 37.982353,53.523037 
z"/>
<path fill="#C6C7CA" opacity="1.000000" stroke="none" 
	d="
M41.006557,41.016617 
	C40.696327,40.887611 40.439171,40.689663 40.113247,40.209274 
	C40.450748,39.199898 41.387341,37.764690 41.300785,37.700077 
	C37.491405,34.856380 39.796211,30.944769 39.992081,27.390820 
	C42.042255,28.185619 43.538765,29.120520 45.035278,30.055420 
	C45.198215,30.896587 45.361149,31.737755 45.773727,32.790207 
	C46.025188,33.747772 46.027008,34.494061 45.977463,35.966370 
	C44.286247,38.133804 42.646400,39.575211 41.006557,41.016617 
z"/>
<path fill="#CBCCCF" opacity="1.000000" stroke="none" 
	d="
M37.057217,52.022045 
	C34.585728,50.444443 32.114239,48.866844 29.326591,47.144562 
	C29.008606,46.254562 29.006783,45.509239 29.009689,44.391823 
	C32.028168,43.404343 35.041920,42.788960 39.269325,41.925758 
	C38.479588,44.143425 37.806099,45.569332 37.490635,47.070477 
	C37.246445,48.232441 37.450283,49.488556 37.682770,51.102196 
	C37.626125,51.675068 37.341671,51.848557 37.057217,52.022045 
z"/>
<path fill="#D3D4D7" opacity="1.000000" stroke="none" 
	d="
M45.303810,29.826565 
	C43.538765,29.120520 42.042255,28.185619 40.238747,27.117985 
	C39.173241,26.667433 38.414730,26.349619 37.328758,26.022911 
	C37.773884,25.354601 38.445713,24.415543 39.339817,24.093412 
	C41.260250,23.401501 43.299221,23.042612 45.282570,22.520454 
	C49.561935,21.393818 48.723972,25.272036 49.918564,27.559380 
	C48.496513,28.477106 47.034431,29.037407 45.303810,29.826565 
z"/>
<path fill="#7AAE6E" opacity="1.000000" stroke="none" 
	d="
M68.263412,45.266090 
	C69.424835,45.355824 70.448395,45.500561 71.216560,46.021725 
	C72.549622,46.926136 74.541771,47.938328 74.725647,49.139767 
	C74.893944,50.239506 73.036591,51.649242 71.661461,53.036858 
	C70.683151,52.835106 70.115227,52.518867 69.290573,52.209648 
	C66.175453,50.357582 66.301460,48.044476 68.263412,45.266090 
z"/>
<path fill="#4B4B4D" opacity="1.000000" stroke="none" 
	d="
M59.466862,60.068649 
	C59.466862,60.068649 59.499363,60.008698 59.350502,59.729679 
	C59.148403,58.991108 59.095165,58.531555 59.341042,57.949211 
	C60.059219,56.909798 60.478294,55.993172 61.128647,55.031578 
	C61.359924,54.986607 61.829361,54.945644 61.829361,54.945644 
	C62.322613,55.593166 62.815865,56.240692 63.713707,57.258400 
	C64.167282,57.826397 64.216263,58.024204 64.265251,58.222012 
	C64.265251,58.222012 63.846962,58.426189 63.082664,58.442535 
	C61.953197,58.540977 61.588024,58.623074 61.214302,58.779732 
	C61.205750,58.854294 60.988186,59.071152 61.013290,59.016418 
	C61.038399,58.961689 60.933380,58.902737 60.608585,58.970673 
	C60.011482,59.381958 59.739174,59.725304 59.466862,60.068649 
z"/>
<path fill="#909093" opacity="1.000000" stroke="none" 
	d="
M61.222851,58.705170 
	C61.588024,58.623074 61.953197,58.540977 62.874832,58.547256 
	C63.347393,59.180229 63.263496,59.724823 63.287354,60.529968 
	C62.796574,60.914722 62.198044,61.038929 61.163918,61.302296 
	C60.728321,61.441456 60.690018,61.385559 60.825691,60.956642 
	C60.952034,59.986061 60.942707,59.444401 60.933380,58.902737 
	C60.933380,58.902737 61.038399,58.961689 60.985939,58.914951 
	C60.933475,58.868214 61.222851,58.705166 61.222851,58.705170 
z"/>
<path fill="#1A1A1B" opacity="1.000000" stroke="none" 
	d="
M61.904358,54.710922 
	C61.829361,54.945644 61.359924,54.986607 60.943649,54.985229 
	C60.527370,54.983849 60.146824,54.957027 60.146824,54.957027 
	C60.715454,54.427368 61.284088,53.897709 61.999817,53.690399 
	C62.146915,54.012745 61.979355,54.476204 61.904358,54.710922 
z"/>
<path fill="#909093" opacity="1.000000" stroke="none" 
	d="
M66.244843,62.837296 
	C65.977135,62.503990 65.974495,62.098282 65.976791,61.388508 
	C66.157791,61.644592 66.333855,62.204742 66.244843,62.837296 
z"/>
<path fill="#909093" opacity="1.000000" stroke="none" 
	d="
M65.270996,57.710968 
	C65.183334,58.050854 65.095673,58.390739 64.985352,58.394760 
	C64.962692,58.058895 65.270996,57.710968 65.270996,57.710968 
z"/>
<path fill="#909093" opacity="1.000000" stroke="none" 
	d="
M64.354156,58.291683 
	C64.216263,58.024204 64.167282,57.826397 64.042168,57.332558 
	C64.291306,57.127083 64.616570,57.217640 65.106415,57.509583 
	C65.270996,57.710968 64.962692,58.058895 64.811905,58.239689 
	C64.661110,58.420483 64.443069,58.361355 64.354156,58.291683 
z"/>
<path fill="#A5A6A7" opacity="1.000000" stroke="none" 
	d="
M44.030163,57.157372 
	C43.686893,56.574692 43.343624,55.992008 42.383339,55.077522 
	C41.485592,54.754158 41.204861,54.762604 40.924133,54.771049 
	C40.922176,54.463150 40.927670,54.155384 41.574127,53.461987 
	C42.618164,52.960949 43.028687,52.845676 43.598526,52.624397 
	C44.832787,52.032932 45.907726,51.547470 46.933006,51.445377 
	C46.463699,53.866070 46.044056,55.903393 45.624413,57.940720 
	C45.272110,57.957001 44.919815,57.973282 44.289116,58.000011 
	C44.010719,58.010456 43.983356,57.983200 43.992363,57.776588 
	C44.001373,57.569981 44.030163,57.157372 44.030163,57.157372 
z"/>
<path fill="#585859" opacity="1.000000" stroke="none" 
	d="
M43.439205,52.730404 
	C43.028687,52.845676 42.618164,52.960949 41.586990,53.231468 
	C40.205540,53.306660 39.444752,53.226608 38.333157,53.334797 
	C37.683746,53.239826 37.385136,52.956615 37.071873,52.347725 
	C37.341671,51.848557 37.626125,51.675068 37.976013,51.256203 
	C39.182293,51.232231 40.323143,51.453632 42.053246,52.125443 
	C42.908066,52.627365 43.173634,52.678886 43.439205,52.730404 
z"/>
<path fill="#585859" opacity="1.000000" stroke="none" 
	d="
M40.976997,55.107368 
	C41.204861,54.762604 41.485592,54.754158 42.159523,54.896908 
	C42.488144,55.244297 42.423561,55.440487 42.217049,55.912148 
	C41.726696,55.939640 41.378277,55.691662 40.976997,55.107368 
z"/>
<path fill="#656565" opacity="1.000000" stroke="none" 
	d="
M41.187534,57.106178 
	C41.277237,57.406391 40.993412,57.838577 40.347595,58.411514 
	C40.261742,58.114227 40.537876,57.676193 41.187534,57.106178 
z"/>
<path fill="#131313" opacity="1.000000" stroke="none" 
	d="
M56.039364,72.634476 
	C56.047897,73.032547 56.031815,73.209000 55.672905,73.664719 
	C54.890903,73.965958 54.451729,73.987946 54.012554,74.009933 
	C53.702007,73.595329 53.391457,73.180725 53.045616,72.497604 
	C53.374706,72.093681 53.739090,71.958275 54.396507,71.816551 
	C54.889877,71.860374 55.090210,71.910530 55.599579,71.970200 
	C55.908611,71.979729 56.014744,72.412865 56.039364,72.634476 
z"/>
<path fill="#C1C1C4" opacity="1.000000" stroke="none" 
	d="
M52.281021,61.949127 
	C51.992901,61.100876 52.007771,60.400005 52.012142,59.348724 
	C52.001644,58.998318 52.000000,59.000000 52.324203,59.007305 
	C54.091526,59.334854 55.534645,59.655098 56.975353,60.180046 
	C56.972942,60.384750 56.955467,60.793819 56.955467,60.793823 
	C55.498318,61.228050 54.041164,61.662277 52.281021,61.949127 
z"/>
<path fill="#A5A6A7" opacity="1.000000" stroke="none" 
	d="
M57.362637,60.841873 
	C56.955467,60.793819 56.972942,60.384750 57.018833,59.883171 
	C57.331726,58.869122 57.598724,58.356655 58.124527,57.853443 
	C58.551083,57.825325 58.718830,57.787949 58.930534,57.828461 
	C58.974491,57.906342 59.041931,58.072002 59.041931,58.072002 
	C59.095165,58.531555 59.148403,58.991108 59.361977,59.761787 
	C58.938145,60.345245 58.353973,60.617584 57.362637,60.841873 
z"/>
<path fill="#A5A6A7" opacity="1.000000" stroke="none" 
	d="
M60.608582,58.970673 
	C60.942707,59.444401 60.952034,59.986061 60.827225,60.922798 
	C60.209702,61.183735 59.726311,61.049603 59.354893,60.492062 
	C59.739174,59.725304 60.011482,59.381958 60.608582,58.970673 
z"/>
<path fill="#D3D3D6" opacity="1.000000" stroke="none" 
	d="
M57.865723,57.844189 
	C57.598724,58.356655 57.331726,58.869122 57.021244,59.678463 
	C55.534645,59.655098 54.091526,59.334854 52.323433,59.008133 
	C50.153400,58.656353 48.308346,58.311047 46.043850,57.953224 
	C46.044056,55.903393 46.463699,53.866070 46.832344,51.179482 
	C46.525120,50.026321 46.268890,49.522427 46.012657,49.018532 
	C46.633926,48.561741 47.255196,48.104954 47.935623,46.936291 
	C47.998318,45.155228 48.001854,44.086040 48.335403,42.974487 
	C50.111626,41.949028 51.557838,40.965931 53.004051,39.982830 
	C55.077541,41.316891 57.151028,42.650948 59.611664,43.993637 
	C59.793640,45.225567 59.884865,47.350330 59.336731,47.530560 
	C54.654942,49.069923 56.261631,51.661232 57.750923,54.845154 
	C57.678951,56.167610 57.772339,57.005898 57.865723,57.844189 
z"/>
<path fill="#A5A6A7" opacity="1.000000" stroke="none" 
	d="
M44.013405,58.742432 
	C43.691315,58.880665 43.449497,58.697735 43.425236,58.208183 
	C43.577019,57.988487 43.983356,57.983200 43.983356,57.983200 
	C43.983356,57.983200 44.010719,58.010456 44.025383,58.024719 
	C44.040043,58.038979 44.027897,58.508194 44.013405,58.742432 
z"/>
<path fill="#585859" opacity="1.000000" stroke="none" 
	d="
M58.980858,87.568375 
	C58.538925,88.290771 58.084358,88.717529 57.305794,89.093704 
	C57.366280,88.324211 57.750755,87.605316 58.455040,86.799904 
	C58.839302,86.899834 58.903763,87.086281 58.980858,87.568375 
z"/>
<path fill="#656565" opacity="1.000000" stroke="none" 
	d="
M50.525909,10.685947 
	C50.836300,11.406704 50.696083,12.302430 50.261150,13.372202 
	C50.002724,12.651136 50.039013,11.756026 50.525909,10.685947 
z"/>
<path fill="#383839" opacity="1.000000" stroke="none" 
	d="
M50.546486,8.522673 
	C51.069962,8.595685 51.184875,8.748761 51.545044,9.051121 
	C51.778732,9.564914 51.612270,9.833387 51.131020,10.193686 
	C50.693401,9.788610 50.415665,9.195672 50.546486,8.522673 
z"/>
<path fill="#A5A6A7" opacity="1.000000" stroke="none" 
	d="
M25.719856,78.618103 
	C25.968065,78.745659 25.967489,79.002831 26.007248,79.643921 
	C25.855413,79.601128 25.663244,79.174423 25.719856,78.618103 
z"/>
<path fill="#B6B7B9" opacity="1.000000" stroke="none" 
	d="
M63.022331,62.743393 
	C62.907104,62.584248 62.962780,62.423531 63.018456,62.262814 
	C63.076717,62.422485 63.134975,62.582153 63.022331,62.743393 
z"/>
<path fill="#9F9FA1" opacity="1.000000" stroke="none" 
	d="
M43.992363,57.776588 
	C43.983356,57.983200 43.577019,57.988487 43.374729,57.982750 
	C43.170238,57.641136 43.300678,57.368855 43.796963,57.158768 
	C44.030163,57.157372 44.001373,57.569981 43.992363,57.776588 
z"/>
<path fill="#262627" opacity="1.000000" stroke="none" 
	d="
M54.083214,74.392822 
	C54.451729,73.987946 54.890903,73.965958 55.659603,73.930161 
	C55.995434,74.098106 56.001736,74.279884 56.002296,74.734467 
	C55.634834,75.090759 55.273109,75.174255 54.662312,75.383850 
	C54.326786,75.265205 54.240334,75.020454 54.083214,74.392822 
z"/>
<path fill="#BABBBD" opacity="1.000000" stroke="none" 
	d="
M53.065929,39.652985 
	C51.557838,40.965931 50.111626,41.949028 47.971390,42.970745 
	C46.178856,44.006596 45.080338,45.003830 43.981819,46.001064 
	C43.288330,46.531975 42.594837,47.062889 41.002903,48.281620 
	C41.002903,45.504478 41.002903,43.672642 41.004730,41.428711 
	C42.646400,39.575211 44.286247,38.133804 45.984077,36.339516 
	C48.689823,35.986629 51.337582,35.986629 54.609596,35.986629 
	C53.958111,37.453560 53.542957,38.388348 53.065929,39.652985 
z"/>
<path fill="#B0B1B4" opacity="1.000000" stroke="none" 
	d="
M59.873253,54.974766 
	C60.146824,54.957027 60.527370,54.983849 60.712368,55.030197 
	C60.478294,55.993172 60.059219,56.909798 59.341042,57.949211 
	C59.041931,58.072002 58.974491,57.906342 58.969315,57.493587 
	C58.993931,56.400764 59.023720,55.720692 59.053509,55.040623 
	C59.235565,55.024582 59.417625,55.008545 59.873253,54.974766 
z"/>
<path fill="#C1C1C4" opacity="1.000000" stroke="none" 
	d="
M58.796528,55.029343 
	C59.023720,55.720692 58.993931,56.400764 58.925362,57.415703 
	C58.718830,57.787949 58.551083,57.825325 58.124527,57.853443 
	C57.772339,57.005898 57.678951,56.167610 57.805351,55.170364 
	C58.196609,55.013626 58.368080,55.015846 58.796528,55.029343 
z"/>
<path fill="#CDCED1" opacity="1.000000" stroke="none" 
	d="
M44.302444,46.139908 
	C45.080338,45.003830 46.178856,44.006596 47.641384,43.013107 
	C48.001854,44.086040 47.998318,45.155228 47.987946,46.626701 
	C46.861763,46.778912 45.742416,46.528835 44.302444,46.139908 
z"/>
<path fill="#CDCED1" opacity="1.000000" stroke="none" 
	d="
M45.665802,49.018570 
	C46.268890,49.522427 46.525120,50.026321 46.882008,50.796112 
	C45.907726,51.547470 44.832787,52.032932 43.598526,52.624397 
	C43.173634,52.678886 42.908066,52.627365 42.385262,52.262028 
	C43.191662,50.971676 44.255302,49.995144 45.665802,49.018570 
z"/>
<path fill="#D6D7D9" opacity="1.000000" stroke="none" 
	d="
M61.214302,58.779732 
	C61.222851,58.705166 60.933475,58.868214 60.960831,58.969681 
	C60.988186,59.071152 61.205750,58.854294 61.214302,58.779732 
z"/>
</svg>