<?xml version="1.0" standalone="no"?>
<!DOCTYPE svg PUBLIC "-//W3C//DTD SVG 20010904//EN"
 "http://www.w3.org/TR/2001/REC-SVG-20010904/DTD/svg10.dtd">
<svg version="1.0" xmlns="http://www.w3.org/2000/svg"
 width="300.000000pt" height="299.000000pt" viewBox="0 0 300.000000 299.000000"
 preserveAspectRatio="xMidYMid meet">
<metadata>
Created by potrace 1.10, written by Peter Selinger 2001-2011
</metadata>
<g transform="translate(0.000000,299.000000) scale(0.100000,-0.100000)"
fill="#000000" stroke="none">
<path d="M1245 2969 c-191 -28 -434 -129 -615 -257 -79 -56 -235 -206 -300
-287 -104 -132 -203 -319 -253 -481 -75 -238 -87 -549 -31 -790 82 -359 314
-694 619 -899 214 -143 513 -246 708 -245 41 1 42 1 17 15 -14 7 -77 23 -139
35 -624 118 -1073 573 -1188 1205 -20 110 -22 331 -5 435 86 495 364 880 795
1099 113 57 217 91 401 131 77 16 144 34 150 40 12 12 -71 12 -159 -1z"/>
<path d="M1610 2966 c14 -8 77 -24 139 -36 459 -86 845 -369 1048 -766 77
-150 105 -238 158 -486 24 -113 40 -113 31 0 -25 337 -238 731 -520 962 -238
194 -534 320 -786 335 -87 6 -93 5 -70 -9z"/>
<path d="M1437 2822 c-13 -13 -19 -13 -29 -4 -17 17 -68 15 -89 -4 -15 -13
-24 -14 -49 -5 -35 12 -84 -2 -108 -31 -9 -12 -24 -15 -53 -11 -61 9 -144 -22
-176 -64 -24 -31 -30 -34 -62 -28 -48 7 -148 -47 -170 -92 -14 -26 -20 -30
-43 -26 -22 4 -35 -2 -63 -30 -22 -22 -35 -45 -35 -61 0 -23 -4 -26 -35 -26
-39 0 -105 -50 -105 -80 0 -40 136 -200 170 -200 17 0 46 25 99 84 13 15 41
36 61 46 20 10 42 26 50 35 8 9 43 30 79 46 36 17 80 43 96 59 23 22 39 28 68
27 20 0 37 -2 37 -3 0 -1 -37 -22 -83 -48 -180 -101 -335 -267 -427 -458 l-52
-107 -32 32 c-23 25 -49 37 -103 51 -81 21 -112 15 -153 -29 -30 -32 -53 -134
-39 -175 10 -27 8 -34 -10 -54 -27 -29 -27 -73 0 -102 12 -13 25 -44 30 -71 9
-45 8 -48 -21 -71 -34 -26 -41 -74 -16 -108 10 -13 13 -33 9 -61 -4 -30 -1
-50 10 -67 9 -13 16 -40 15 -59 -1 -25 9 -51 35 -90 27 -40 37 -66 37 -95 0
-42 35 -92 65 -92 33 0 181 64 202 87 13 13 23 35 23 47 0 26 -35 76 -53 76
-30 1 -37 15 -25 48 7 18 15 32 19 32 3 0 29 -47 58 -104 61 -122 92 -159 129
-158 59 2 130 25 182 59 37 25 69 38 100 40 80 7 92 11 81 32 -14 26 -1 35 16
11 8 -11 23 -20 35 -20 17 0 20 4 15 30 -8 36 -4 37 24 9 20 -20 20 -21 2 -34
-28 -22 -8 -17 34 7 l38 23 -27 3 c-16 2 -28 7 -28 12 0 5 -3 15 -6 24 -5 13
1 16 27 17 l34 1 -30 8 -30 9 30 -2 c37 -2 47 -33 13 -40 -13 -3 -3 -4 21 -4
54 2 64 -15 19 -34 -18 -7 -52 -31 -74 -54 -72 -70 -93 -84 -139 -91 -68 -10
-65 -24 5 -24 57 0 62 2 78 30 18 32 39 42 27 13 -4 -10 -10 -26 -12 -36 -3
-9 -16 -20 -29 -23 -14 -4 -24 -14 -24 -23 0 -14 -10 -18 -50 -19 -27 0 -50 3
-50 9 0 5 16 9 35 9 19 0 35 5 35 10 0 6 -21 10 -46 10 -45 0 -46 0 -39 -30 6
-26 3 -31 -22 -42 l-28 -12 39 -4 c21 -2 60 4 87 12 26 9 55 16 64 16 9 0 24
13 33 30 17 29 32 34 39 14 2 -6 -8 -22 -22 -36 -30 -30 -144 -62 -217 -61
-56 1 -68 -23 -18 -34 17 -3 30 -9 30 -14 0 -13 -44 -11 -58 3 -7 7 -12 8 -12
2 0 -17 23 -34 46 -34 25 0 49 24 39 40 -14 22 14 8 29 -15 9 -14 23 -25 32
-25 12 0 14 -7 8 -34 l-6 -34 74 -35 c40 -19 90 -42 110 -51 53 -23 189 -47
277 -47 57 -1 71 -3 57 -11 -11 -6 -52 -8 -100 -5 -46 3 -88 1 -99 -5 -15 -7
-24 -5 -41 11 -12 12 -33 21 -47 21 -13 0 -51 11 -84 25 -33 13 -70 25 -81 25
-12 0 -27 7 -34 15 -7 8 -42 29 -79 46 -36 17 -81 44 -99 60 -18 16 -37 29
-43 29 -13 0 -85 79 -147 159 -62 80 -89 101 -119 90 -67 -25 -183 -125 -183
-157 0 -44 177 -250 228 -266 12 -4 31 -23 42 -42 20 -31 49 -47 92 -48 9 -1
27 -17 40 -36 24 -35 93 -79 158 -100 19 -7 57 -23 84 -36 28 -13 66 -24 87
-24 21 0 42 -7 50 -16 10 -12 24 -15 60 -11 33 4 51 2 58 -7 16 -20 67 -27 95
-15 19 9 29 8 45 -3 25 -18 195 -16 216 2 8 7 27 9 42 6 36 -8 178 19 209 39
13 8 37 15 53 15 16 0 42 11 58 23 15 13 44 26 63 30 35 5 122 52 194 104 22
15 49 34 62 41 13 7 36 27 51 45 15 18 45 44 65 57 40 26 61 61 52 84 -4 11 4
18 28 24 23 6 47 26 81 68 80 99 76 126 -32 198 -108 71 -161 59 -222 -50 -17
-30 -41 -62 -53 -72 -12 -9 -30 -29 -40 -44 -10 -16 -24 -28 -31 -28 -8 0 -20
-6 -27 -13 -7 -7 -40 -30 -73 -52 -33 -21 -73 -48 -88 -61 -16 -13 -36 -24
-45 -24 -9 0 -30 -7 -47 -16 -36 -19 -122 -48 -190 -64 -27 -6 -68 -16 -90
-21 -37 -8 -85 -9 -85 -1 0 1 12 13 27 26 22 19 32 22 49 14 15 -7 28 -7 40 1
18 10 18 10 -3 11 -23 0 -53 43 -53 76 0 10 -5 14 -14 11 -19 -7 -35 36 -34
91 0 28 6 46 15 49 22 9 25 -2 13 -46 -12 -46 -6 -82 13 -76 7 2 23 -17 35
-44 21 -42 27 -47 49 -43 17 3 24 1 20 -5 -12 -18 40 -24 80 -9 21 8 50 17 65
20 31 7 86 51 76 61 -3 4 -28 -3 -55 -15 -82 -37 -128 -48 -149 -37 -27 15
-53 49 -54 69 0 9 -5 20 -11 24 -6 3 -8 16 -5 29 3 13 -1 39 -9 59 -9 20 -11
36 -5 36 14 0 40 -55 40 -87 0 -48 31 -97 65 -104 30 -5 85 7 85 20 0 3 -23
31 -50 61 -29 31 -48 61 -45 69 8 20 -23 50 -44 44 -11 -3 -22 0 -25 5 -3 6 7
13 23 17 16 3 32 13 35 21 3 9 11 12 16 9 8 -5 8 -11 0 -19 -7 -10 -5 -20 10
-39 11 -14 20 -30 20 -36 0 -17 21 -48 63 -94 37 -42 47 -44 27 -6 -13 23 2
26 20 4 19 -23 43 -19 37 5 -5 19 -2 20 31 13 92 -18 184 18 207 82 8 24 6 30
-22 55 -18 17 -49 31 -74 35 -51 8 -99 31 -99 46 0 6 -4 8 -9 5 -4 -3 -37 0
-72 6 -47 8 -64 8 -67 -1 -7 -22 -20 -10 -27 27 -4 21 -23 57 -46 84 -37 45
-38 47 -18 53 22 7 38 -7 39 -35 1 -8 18 -34 38 -58 33 -36 46 -44 93 -51 58
-10 69 -7 51 11 -9 9 -3 15 26 25 54 19 87 16 192 -17 150 -48 157 -45 237 93
50 87 51 88 46 45 -4 -37 -1 -46 21 -68 27 -24 27 -24 61 -6 34 18 35 18 94
-3 65 -25 86 -21 115 21 22 31 20 68 -5 94 l-21 22 32 7 c41 9 57 36 74 130
17 93 18 106 15 253 0 20 3 54 6 75 4 22 3 42 -4 50 -6 8 -8 29 -4 50 4 26 0
44 -11 63 -23 33 -28 57 -30 126 -2 66 -24 98 -67 98 -60 0 -193 -39 -212 -62
-25 -33 -15 -76 27 -113 l34 -31 -19 -24 c-26 -34 -24 -73 6 -108 14 -17 25
-34 25 -39 0 -10 -32 -43 -42 -43 -3 0 -9 35 -13 78 -18 200 -135 452 -284
615 -81 89 -285 222 -381 251 -79 23 -86 30 -44 45 34 12 36 12 68 -21 23 -23
56 -40 110 -58 42 -13 82 -31 89 -38 19 -24 130 -93 158 -98 16 -4 32 -19 44
-41 34 -62 87 -74 124 -29 7 8 44 27 82 41 43 17 76 36 86 52 15 23 15 26 -4
51 -11 15 -33 34 -49 42 -16 8 -31 19 -33 23 -10 26 -66 77 -82 77 -10 0 -29
14 -41 31 -32 42 -117 89 -164 89 -33 1 -42 6 -59 33 -26 41 -86 69 -153 73
-40 2 -60 9 -84 29 -28 24 -38 27 -79 22 -38 -5 -50 -2 -65 14 -19 21 -64 25
-94 9 -14 -8 -29 -5 -57 9 -50 26 -182 28 -206 3z m-35 -82 c20 -145 19 -157
-5 -164 -42 -11 -54 -6 -87 42 -19 26 -56 70 -82 98 l-48 51 41 7 c24 4 45 3
48 -3 21 -33 127 -161 134 -161 10 0 2 14 -34 61 -16 20 -31 54 -35 77 -5 34
-3 41 12 45 41 11 49 3 56 -53z m118 -51 l0 -110 -35 3 c-20 2 -35 6 -35 11 0
4 0 52 0 107 l0 100 35 0 35 0 0 -111z m121 85 c24 -26 27 -57 8 -81 -7 -7 -6
-14 1 -18 17 -11 11 -47 -12 -72 -16 -17 -32 -23 -65 -23 -40 0 -44 2 -41 22
2 17 10 23 28 23 18 0 26 6 28 23 3 19 -1 22 -28 22 -25 0 -31 4 -28 18 2 10
14 18 31 20 23 3 28 8 25 25 -2 14 -11 23 -25 25 -15 2 -23 10 -23 23 0 31 70
26 101 -7z m148 0 c3 -2 -20 -103 -35 -156 -4 -12 0 -18 11 -18 12 0 15 -5 11
-16 -3 -9 -6 -19 -6 -24 0 -16 -54 7 -72 31 -17 23 -17 27 0 111 l17 88 35 -6
c19 -4 37 -8 39 -10z m137 -28 c1 0 -7 -39 -19 -86 -21 -87 -43 -119 -82 -120
-11 0 -26 4 -33 8 -15 10 -5 42 13 42 7 0 16 17 20 38 3 20 11 59 17 85 l10
48 36 -7 c21 -4 38 -7 38 -8z m-807 -20 c36 -19 69 -118 54 -162 -12 -35 -59
-57 -73 -34 -14 22 -12 30 6 30 9 0 13 6 11 13 -3 6 -14 36 -23 65 -12 36 -22
51 -33 50 -23 -4 -27 39 -4 45 30 8 33 7 62 -7z m156 -122 c7 -42 8 -42 -32
-50 -30 -6 -30 -6 -36 48 -4 29 -10 73 -13 98 l-6 45 40 -53 c22 -29 43 -69
47 -88z m-245 86 c0 -10 -4 -20 -10 -22 -16 -5 30 -116 51 -121 27 -7 24 -35
-5 -48 -41 -19 -75 8 -102 81 -21 58 -21 66 -8 92 14 28 51 50 67 41 4 -2 7
-13 7 -23z m1013 14 c3 -3 -10 -42 -29 -86 -19 -44 -34 -81 -34 -83 0 -1 11
-6 25 -9 15 -4 25 -14 25 -25 0 -29 -9 -30 -53 -11 -62 28 -70 57 -39 135 24
61 46 83 83 84 9 1 18 -2 22 -5z m62 -29 c35 -14 61 -56 51 -82 -4 -10 -12
-10 -40 3 -19 10 -32 22 -30 29 3 7 -4 15 -15 18 -13 3 -21 13 -21 26 0 25 9
26 55 6z m-1222 -44 c33 -13 86 -111 79 -146 -2 -14 -16 -33 -29 -42 -22 -15
-26 -15 -41 1 -14 14 -15 18 -3 25 11 7 8 20 -18 64 -20 35 -37 54 -45 51 -22
-8 -30 29 -10 43 21 15 34 16 67 4z m-88 -42 c4 -12 3 -24 -3 -28 -15 -9 47
-111 68 -111 15 0 37 -28 28 -35 -47 -38 -94 -23 -135 46 -38 62 -38 102 0
131 29 23 34 22 42 -3z m1481 -3 c3 -8 -15 -45 -40 -84 l-45 -70 25 -17 c20
-13 22 -19 14 -35 -10 -19 -12 -19 -49 6 -58 38 -61 72 -13 142 33 50 54 66
95 71 4 1 10 -5 13 -13z m-180 -12 c22 -9 40 -17 42 -18 1 -2 -4 -16 -12 -32
-8 -16 -19 -42 -25 -57 -11 -27 -11 -27 -41 -12 -29 15 -30 16 -15 45 19 37
19 50 0 50 -17 0 -18 2 -9 24 8 20 12 20 60 0z m234 -20 c37 -25 50 -45 50
-76 0 -16 -5 -28 -12 -28 -18 1 -58 36 -58 51 0 6 -7 17 -16 23 -9 7 -12 18
-8 29 8 21 13 21 44 1z m-635 -14 c18 -19 17 -20 -6 -20 -13 0 -34 3 -47 6
-18 5 -20 9 -11 20 16 20 43 17 64 -6z m-358 -6 c2 -6 -9 -14 -24 -17 -34 -6
-40 -2 -23 18 14 17 41 17 47 -1z m-615 -88 l67 -83 -26 -24 -25 -24 -36 45
c-20 25 -54 62 -74 83 l-37 39 27 23 c15 14 29 24 32 24 3 0 35 -38 72 -83z
m502 65 c3 -5 -8 -14 -26 -20 -42 -15 -44 -14 -23 9 19 21 40 26 49 11z m393
-22 c250 -34 449 -127 606 -285 274 -276 363 -658 242 -1041 -20 -65 -108
-237 -135 -266 -4 -4 -54 6 -111 24 -57 18 -121 34 -142 37 -32 3 -38 8 -34
23 8 30 -8 22 -20 -11 -18 -47 -43 -39 -43 14 0 41 2 45 30 51 61 13 61 85 0
85 -25 0 -30 4 -30 23 0 30 -27 67 -49 67 -28 0 -41 -21 -41 -67 0 -41 -2 -43
-28 -43 -33 0 -67 -32 -59 -55 4 -8 2 -15 -4 -15 -7 0 -9 13 -4 38 16 89 75
152 143 152 29 0 43 -8 79 -45 47 -50 58 -42 17 13 -32 41 -78 62 -119 55 -29
-6 -29 -5 -14 13 22 27 29 50 18 61 -6 6 -1 21 16 40 34 38 108 173 92 167 -7
-2 -32 -36 -56 -75 -42 -67 -44 -69 -62 -53 -25 22 -37 10 -16 -14 24 -27 21
-39 -4 -16 -21 19 -21 19 -44 -10 -24 -30 -24 -48 -2 -45 7 1 25 1 40 0 l28
-1 -20 -26 c-11 -14 -18 -31 -15 -37 2 -7 -8 -18 -23 -24 -36 -17 -73 -71 -85
-128 l-9 -44 -47 6 c-26 3 -55 10 -65 15 -10 5 -47 11 -82 14 -57 4 -65 2 -75
-16 -13 -24 -30 -26 -30 -3 0 13 -3 14 -12 5 -21 -21 -39 -13 -54 23 -19 48
-18 52 16 60 32 7 36 15 19 46 -14 26 -2 59 21 59 14 0 18 -7 16 -29 -1 -16 3
-29 8 -28 17 3 18 -41 2 -74 -10 -20 -11 -29 -3 -26 6 2 21 28 33 58 14 35 29
55 40 57 18 3 18 2 1 -12 -13 -10 -15 -16 -6 -21 6 -4 14 -4 18 1 9 13 31 16
31 4 0 -5 -7 -13 -16 -18 -14 -8 -14 -10 1 -22 13 -11 15 -10 9 4 -6 16 4 21
36 16 8 -1 -1 13 -20 30 -19 17 -28 29 -19 27 9 -3 21 -1 27 5 7 7 14 4 24
-11 13 -22 48 -29 48 -10 0 6 -7 8 -17 5 -10 -4 -14 -4 -10 0 4 4 0 15 -9 25
-18 19 -21 43 -10 82 5 21 4 27 -5 22 -6 -4 -15 -1 -20 6 -4 7 -11 10 -15 6
-4 -4 -2 -13 4 -19 15 -15 15 -38 1 -38 -7 0 -18 8 -25 18 -12 16 -13 15 -14
-5 0 -39 -18 -34 -32 9 -8 24 -19 42 -26 41 -6 -2 -9 4 -6 12 8 20 23 19 46
-2 17 -15 21 -15 54 0 19 9 43 17 53 17 18 0 41 -37 41 -66 0 -8 10 -18 22
-23 21 -8 21 -8 -5 -15 -29 -7 -36 -37 -16 -66 8 -12 10 -10 8 10 -3 49 -1 52
39 49 29 -3 36 0 34 12 -1 9 7 24 18 34 11 10 20 26 20 35 0 9 5 21 10 26 8 8
6 15 -6 25 -13 11 -18 11 -21 2 -4 -10 -8 -9 -19 1 -18 19 -18 30 1 23 8 -4
17 -2 21 4 3 6 10 6 17 1 19 -14 70 -25 62 -12 -3 5 -17 10 -30 10 -13 0 -26
4 -29 9 -12 19 -54 8 -65 -16 -6 -13 -15 -22 -20 -19 -5 3 -12 -10 -15 -29 -8
-43 -18 -44 -33 -5 -13 34 -25 37 -67 15 -36 -19 -55 -19 -77 1 -17 15 -20 15
-44 0 -25 -16 -27 -16 -56 8 -29 25 -59 26 -59 1 0 -7 17 -15 38 -19 46 -7 73
-33 66 -63 -5 -17 -1 -22 18 -25 12 -2 24 -9 24 -15 4 -38 4 -38 12 -26 4 6
20 17 36 23 28 10 45 2 46 -22 0 -11 -47 -21 -59 -13 -15 9 -51 -13 -51 -32 0
-13 -3 -13 -15 -3 -8 7 -14 25 -13 40 2 30 -14 55 -46 72 -19 10 -18 8 3 -16
27 -29 27 -32 -12 -41 -23 -6 -27 -4 -27 13 0 11 -6 25 -14 31 -12 11 -13 7
-3 -25 10 -32 9 -38 -8 -50 -27 -20 -32 -18 -46 23 -11 33 -10 38 10 54 15 12
17 19 9 23 -7 3 1 5 19 3 19 -2 29 1 26 6 -6 10 25 6 62 -8 20 -8 20 -8 0 12
-18 19 -27 20 -83 13 -37 -5 -71 -15 -83 -26 -10 -9 -32 -19 -47 -20 -22 -2
-30 3 -44 33 l-17 35 32 -6 c25 -5 29 -4 19 6 -17 17 -83 16 -115 -1 -57 -31
-70 -132 -27 -217 11 -20 19 -39 17 -40 -1 -1 -31 -9 -66 -18 -71 -18 -95 -32
-87 -53 3 -7 -1 -13 -10 -13 -11 0 -14 -7 -10 -22 3 -13 3 -18 0 -11 -3 8 -23
-2 -57 -28 -50 -38 -100 -59 -143 -59 -11 0 -25 -5 -31 -11 -14 -14 -45 33
-102 153 -94 198 -96 205 -96 413 1 220 17 292 105 470 147 295 411 488 740
540 108 17 169 18 267 4z m845 -114 c-12 -33 -22 -68 -22 -77 0 -9 -12 -31
-26 -48 l-27 -31 -28 27 -29 28 28 30 c19 20 35 55 46 96 9 36 19 71 21 77 3
8 14 3 31 -14 l27 -27 -21 -61z m-147 71 c17 -12 31 -21 33 -22 4 -2 -60 -104
-65 -104 -2 0 -15 7 -28 16 l-25 16 21 35 c20 32 21 36 6 45 -14 7 -14 12 -5
28 13 20 14 19 63 -14z m-1636 -120 c6 -27 10 -51 8 -53 -2 -2 -28 8 -57 21
-29 14 -81 32 -116 42 -35 9 -64 20 -64 24 0 3 13 16 29 28 l29 21 52 -20 52
-20 -7 43 -6 43 34 -40 c21 -24 39 -59 46 -89z m1889 34 c24 -20 22 -40 -3
-40 -7 0 -35 -9 -61 -20 -26 -11 -48 -19 -50 -17 -2 2 1 19 7 39 7 26 18 39
37 46 38 14 44 14 70 -8z m-2026 -49 c26 -10 59 -30 74 -45 l28 -27 -27 -26
c-14 -15 -28 -25 -30 -22 -1 2 -32 37 -67 78 -37 43 -56 71 -45 67 11 -5 41
-16 67 -25z m2234 -431 c4 -16 5 -33 3 -37 -2 -4 -40 -16 -84 -25 -44 -9 -90
-20 -102 -23 -19 -6 -23 -2 -31 26 -11 41 -8 49 21 49 12 1 56 9 97 19 41 11
78 19 83 20 4 1 10 -12 13 -29z m-2368 -2 l63 -13 -6 -35 c-4 -19 -8 -36 -10
-38 -1 -2 -40 7 -86 18 -56 14 -85 18 -87 11 -2 -6 -12 -11 -23 -11 -14 0 -19
7 -19 30 0 35 40 63 80 55 14 -2 53 -10 88 -17z m-136 -96 c4 -13 26 -23 86
-37 79 -18 81 -19 76 -44 -4 -14 -10 -29 -14 -34 -5 -6 -99 10 -161 29 -22 6
-43 57 -34 83 8 26 41 28 47 3z m2491 7 l39 -10 -94 -88 -93 -88 -10 36 c-11
35 -10 37 35 78 l45 41 -37 7 c-65 12 -42 29 47 33 17 1 47 -3 68 -9z m-2268
-31 c-10 -47 -23 -56 -31 -23 -5 21 -2 31 11 42 26 18 27 17 20 -19z m2328
-70 c2 -18 3 -34 2 -36 -4 -4 -164 -42 -177 -42 -6 0 11 19 37 43 40 34 88 60
126 66 4 1 9 -14 12 -31z m-2430 -47 c24 -1 27 -5 27 -37 l0 -36 -112 7 c-62
4 -113 8 -114 9 -1 0 1 17 3 36 l5 35 81 -7 c45 -3 94 -7 110 -7z m2441 -68
c-4 -21 -11 -39 -15 -41 -5 -2 -9 -19 -9 -39 0 -30 -3 -34 -22 -31 -13 2 -24
10 -24 18 -1 8 -2 18 -3 22 -1 5 -59 -15 -139 -49 -10 -4 -13 4 -10 32 l3 37
105 43 c58 23 109 43 113 44 4 0 5 -16 1 -36z m-2542 -39 c-4 -22 -1 -24 37
-24 37 0 41 2 41 26 0 21 4 25 22 22 20 -3 23 -8 20 -43 -4 -51 -32 -74 -88
-75 -49 0 -74 28 -74 83 0 40 5 46 29 40 13 -3 17 -11 13 -29z m2478 -81 c54
-16 59 -20 62 -51 2 -18 3 -34 1 -36 -5 -5 -203 68 -203 75 0 5 52 25 73 28 4
1 34 -7 67 -16z m-170 -44 c0 -10 -5 -21 -11 -25 -6 -3 -17 -20 -25 -38 l-13
-31 0 35 c-1 19 2 52 5 73 6 36 8 37 25 21 11 -10 19 -25 19 -35z m-2181 -40
c1 -13 -12 -18 -56 -23 -32 -4 -80 -12 -106 -17 -26 -6 -49 -10 -51 -8 -2 2
-6 20 -10 40 l-6 37 72 6 c40 4 89 11 108 15 36 7 46 -3 49 -50z m1376 11 c-4
-6 -10 -8 -15 -5 -5 3 -11 1 -15 -5 -3 -5 3 -10 14 -10 28 0 26 -11 -5 -33
-20 -15 -28 -16 -39 -7 -21 17 -19 29 8 51 23 19 63 26 52 9z m853 -16 c28 -8
30 -48 2 -71 -11 -10 -20 -23 -20 -30 0 -16 -26 -17 -35 -3 -8 12 14 110 23
110 4 0 17 -3 30 -6z m-1503 -86 c5 -13 3 -18 -8 -18 -8 0 -21 -8 -28 -17 -15
-18 -15 -18 35 3 9 3 17 -3 21 -16 8 -26 6 -28 -32 -36 -28 -5 -31 -3 -37 26
-9 49 -8 67 10 108 l17 37 7 -35 c4 -19 11 -43 15 -52z m49 52 c14 -28 13 -31
-6 -41 -11 -6 -17 -13 -14 -16 3 -3 12 -1 19 5 8 7 16 10 19 7 3 -3 11 1 18
10 23 28 30 15 14 -25 -10 -24 -15 -59 -12 -90 4 -57 -7 -64 -27 -17 -12 28
-11 34 2 49 13 15 13 16 -4 12 -15 -4 -23 6 -41 48 -12 29 -22 61 -22 71 0 29
37 20 54 -13z m-763 -32 c8 -51 -22 -87 -75 -91 -39 -2 -41 0 -65 53 -11 24
-11 24 -8 -8 3 -27 -2 -37 -25 -54 -16 -11 -31 -19 -32 -17 -2 2 -6 20 -10 40
-6 33 -4 37 28 54 21 12 32 24 29 33 -4 10 1 13 18 10 16 -2 25 -11 27 -26 3
-19 8 -23 25 -18 12 3 28 6 34 6 9 0 11 10 6 31 -5 28 -4 30 18 27 19 -2 25
-11 30 -40z m2395 28 c1 -1 -3 -25 -9 -53 -9 -46 -14 -53 -35 -53 -16 0 -23 5
-21 18 1 9 -1 25 -6 35 -4 9 -4 28 -1 42 5 21 10 24 39 18 17 -3 33 -6 33 -7z
m-1518 -33 c0 -16 5 -41 11 -56 14 -36 14 -37 -4 -37 -9 0 -27 -12 -40 -26
l-25 -27 0 30 c0 46 38 143 56 143 1 0 2 -12 2 -27z m1410 -1 c10 -7 10 -15 2
-37 -12 -31 -2 -44 35 -45 35 -1 46 -14 39 -48 -4 -18 -7 -32 -8 -32 -2 0 -45
9 -96 20 -110 23 -120 24 -96 7 16 -12 15 -16 -9 -70 -14 -32 -25 -63 -25 -70
0 -7 -6 -21 -13 -30 -10 -15 -15 -16 -30 -5 -17 13 -17 18 16 99 19 47 38 101
42 120 10 48 11 48 51 36 40 -12 54 -2 54 41 0 23 15 28 38 14z m-179 -74
c-13 -55 -29 -85 -29 -55 0 10 6 32 13 50 15 35 17 41 17 59 0 6 3 9 6 5 3 -3
0 -30 -7 -59z m-1130 -10 c10 -27 7 -34 -20 -48 -16 -9 -21 -7 -29 16 -9 21
-7 29 7 40 25 19 32 17 42 -8z m-951 -35 c11 -35 9 -39 -23 -79 -19 -23 -35
-45 -35 -48 0 -2 19 -6 43 -8 l42 -4 -30 -13 c-32 -15 -175 -28 -175 -16 0 4
22 31 49 61 27 29 62 74 78 98 15 25 31 45 34 46 3 0 11 -17 17 -37z m-84 -28
c-22 -26 -56 -55 -77 -66 l-37 -20 -10 26 c-14 36 -12 55 3 55 8 0 45 13 83
29 38 15 71 27 73 25 1 -1 -14 -24 -35 -49z m1574 43 c7 -7 12 -27 12 -45 0
-29 -3 -33 -25 -33 -22 0 -25 4 -25 38 0 51 13 65 38 40z m-757 -25 c7 -16 15
-31 17 -36 7 -14 -83 6 -95 22 -17 22 -16 32 1 25 8 -3 23 -1 33 5 26 15 28
14 44 -16z m157 3 c9 -20 7 -25 -14 -35 -35 -15 -54 -14 -61 5 -4 11 2 23 18
35 32 25 44 24 57 -5z m30 -78 c6 -16 10 -28 9 -28 -20 0 -107 33 -116 44 -10
12 -6 13 27 9 25 -3 42 -1 47 7 8 14 17 6 33 -32z m-238 8 c-21 -19 -76 -36
-116 -36 -29 0 -34 -4 -34 -23 0 -13 -9 -32 -20 -42 -24 -22 -25 -14 -5 25 8
16 14 35 13 41 -3 11 112 46 157 48 17 1 17 -1 5 -13z m900 -16 c0 -10 -33
-30 -49 -30 -15 0 -14 47 2 53 15 5 47 -10 47 -23z m-78 -5 c6 -30 2 -35 -29
-35 -18 0 -23 6 -23 24 0 40 45 50 52 11z m-72 -15 c0 -28 -3 -30 -34 -30 -39
0 -53 14 -36 35 10 12 21 16 63 24 4 0 7 -12 7 -29z m791 4 c35 -14 66 -27 67
-29 8 -8 -23 -75 -33 -71 -5 3 -36 16 -68 29 -31 13 -60 26 -62 29 -7 7 15 68
24 68 4 0 36 -12 72 -26z m-1641 -32 c0 -18 -18 -42 -31 -42 -4 0 -2 14 4 30
13 33 27 40 27 12z m-517 -19 c2 -10 8 -25 12 -34 5 -14 -12 -24 -91 -55 -54
-22 -101 -40 -104 -42 -8 -3 -30 44 -30 63 0 8 8 15 18 15 9 0 53 16 97 34 97
41 92 40 98 19z m1142 -7 c28 -9 56 -19 64 -22 8 -2 11 -7 8 -10 -3 -3 -29 1
-59 10 -108 31 -204 36 -308 16 -52 -10 -114 -27 -137 -39 -23 -11 -48 -21
-55 -21 -24 0 84 63 130 77 68 18 292 12 357 -11z m303 -23 c-3 -44 -5 -48
-28 -48 -22 0 -25 5 -28 42 -2 33 1 42 15 46 42 11 44 8 41 -40z m-72 -1 c4
-18 4 -35 1 -38 -6 -6 -77 54 -77 65 0 4 16 7 35 7 31 -1 36 -4 41 -34z m-240
-15 c81 -19 103 -32 97 -56 -3 -10 0 -22 6 -25 6 -4 11 -20 11 -35 0 -31 3
-29 -114 -71 -50 -18 -64 -19 -88 -9 -22 9 -32 9 -41 0 -15 -15 -62 -14 -121
4 -27 8 -62 15 -78 15 -32 0 -178 66 -178 80 0 14 60 60 88 66 15 4 33 12 41
18 41 33 259 40 377 13z m849 -77 c8 -14 -24 -60 -43 -60 -8 0 -20 -7 -26 -16
-12 -16 -46 -10 -46 8 0 15 39 62 58 70 25 10 50 9 57 -2z m-1875 -60 c0 -3
-14 -14 -30 -25 -35 -23 -37 -35 -10 -60 25 -22 25 -31 3 -40 -12 -4 -25 2
-41 21 l-23 27 -28 -27 c-34 -33 -44 -33 -66 1 -17 26 -17 27 11 47 16 12 54
42 84 68 l55 46 22 -26 c13 -15 23 -29 23 -32z m1956 -2 c48 -34 53 -47 27
-71 -17 -14 -20 -13 -47 8 -27 22 -31 22 -42 7 -12 -16 -14 -16 -30 0 -15 15
-15 18 12 52 16 20 31 36 32 36 2 0 24 -14 48 -32z m-514 -68 c23 0 98 -30 98
-39 0 -3 -17 -16 -38 -29 -20 -12 -45 -28 -55 -35 -14 -10 -19 -9 -27 3 -8 12
-10 12 -10 1 0 -13 -3 -13 -80 3 -14 3 -42 8 -62 11 -21 3 -38 10 -38 15 0 15
92 12 122 -4 15 -8 29 -12 32 -8 10 9 -15 32 -35 32 -11 0 -19 5 -19 10 0 13
14 13 80 0 77 -15 73 -5 -7 19 -66 20 -173 82 -173 101 0 5 43 -11 96 -36 52
-24 105 -44 116 -44z m-227 34 c10 -19 31 -43 47 -52 34 -20 37 -36 6 -27 -69
21 -120 74 -97 101 17 21 22 18 44 -22z m-1166 -19 l33 -45 -23 -20 -24 -19
-23 25 c-12 14 -20 30 -16 35 3 6 0 16 -6 24 -10 12 -10 18 0 30 18 21 21 20
59 -30z m1766 -15 c35 -27 67 -50 71 -50 3 0 14 10 24 23 17 20 20 20 34 7 14
-14 13 -19 -15 -53 -40 -49 -73 -49 -139 0 -49 37 -73 84 -55 112 9 16 10 16
80 -39z m-1232 24 c9 -10 -32 -64 -48 -64 -13 0 -66 -20 -107 -41 -24 -12 -48
-11 -48 1 0 6 7 10 15 10 8 0 15 4 15 9 0 5 18 12 40 16 22 4 42 11 46 16 3 5
14 9 25 9 12 0 23 10 29 25 9 25 21 31 33 19z m77 -45 c0 -12 -10 -34 -22 -49
-13 -16 -36 -47 -52 -69 l-30 -41 -64 5 c-36 3 -67 7 -70 9 -11 12 13 28 37
24 16 -2 34 3 46 14 25 25 42 23 20 -2 -18 -19 -17 -20 6 -20 18 0 34 14 62
55 20 31 37 65 37 75 0 11 7 20 15 20 9 0 15 -9 15 -21z m89 -23 c22 -34 29
-96 11 -96 -5 0 -10 15 -10 34 0 18 -6 39 -13 45 -11 9 -18 -4 -35 -67 -11
-42 -24 -85 -27 -94 -12 -30 15 -20 33 12 19 34 43 41 35 10 -4 -16 -2 -19 12
-13 15 5 17 2 13 -15 -4 -12 -2 -22 3 -22 5 0 14 20 21 45 7 25 16 45 20 45 4
0 8 -20 8 -45 0 -25 5 -45 10 -45 6 0 10 8 10 18 0 34 13 32 47 -6 29 -31 34
-33 30 -15 -7 34 4 35 43 3 l35 -29 -70 0 c-78 0 -259 23 -319 40 l-38 11 23
24 c28 30 37 30 41 2 3 -21 5 -20 24 12 26 43 38 107 21 114 -8 3 -6 9 6 16 9
6 17 17 17 25 0 7 6 16 13 18 6 3 13 6 14 6 1 1 11 -14 22 -33z m1012 -50 c54
-58 60 -68 38 -63 -51 13 -95 36 -123 66 -29 30 -29 31 -11 51 10 11 21 19 25
18 4 -2 36 -34 71 -72z m-915 38 c13 -16 27 -104 19 -113 -3 -3 -19 3 -35 12
-18 11 -31 14 -35 7 -3 -5 -11 -10 -17 -10 -7 0 -7 4 -1 13 16 20 22 58 13 82
-5 13 -6 26 -3 29 9 9 46 -4 59 -20z m76 -40 c-3 -41 0 -70 7 -77 15 -15 14
-27 -3 -27 -17 0 -23 14 -31 76 -3 27 -8 59 -11 72 -3 18 0 22 19 22 22 0 23
-2 19 -66z m-772 10 c0 -1 -9 -49 -20 -105 -10 -57 -20 -114 -22 -126 l-3 -21
-29 23 -29 23 16 84 c10 45 17 99 17 119 0 20 3 38 6 42 5 5 64 -31 64 -39z
m-242 10 c5 3 20 -6 33 -20 l24 -26 -24 -19 c-13 -10 -26 -19 -30 -19 -3 0
-21 19 -40 42 -33 39 -34 41 -15 55 16 12 20 12 31 -3 6 -9 16 -13 21 -10z
m662 9 c-1 -20 -18 -32 -38 -26 l-23 6 23 12 c28 16 38 18 38 8z m-508 -60
c-5 -29 -21 -65 -37 -86 -28 -34 -29 -35 -51 -19 -13 10 -24 21 -24 25 0 12
112 139 117 133 2 -2 0 -26 -5 -53z m1633 -13 c49 -16 99 -30 111 -30 36 0 37
-17 3 -41 l-31 -22 -93 32 c-51 17 -102 31 -112 31 -11 0 -23 3 -26 7 -9 8 32
53 48 53 6 0 51 -13 100 -30z m-1469 -11 l23 -21 -61 -74 c-34 -41 -63 -72
-66 -70 -2 3 1 19 7 37 6 18 11 40 11 50 0 17 49 98 59 99 3 0 15 -9 27 -21z
m1309 -49 c0 -32 56 -122 72 -115 7 2 18 -5 24 -17 9 -16 9 -23 1 -26 -6 -2
-27 -14 -47 -28 -52 -35 -56 -34 -59 21 -2 32 -49 105 -68 105 -9 0 -21 8 -26
17 -8 14 -2 22 32 44 49 33 71 33 71 -1z m87 3 c27 -10 63 -32 80 -50 l31 -32
-24 -20 c-13 -11 -26 -20 -29 -20 -8 1 -122 139 -115 139 4 0 29 -8 57 -17z
m-1062 -8 c0 -8 -9 -15 -19 -15 -24 0 -36 16 -19 23 24 10 38 7 38 -8z m-245
-5 c4 -6 -12 -44 -34 -86 l-41 -75 25 -11 c26 -12 30 -24 17 -46 -7 -9 -18 -7
-50 10 -59 32 -65 68 -23 142 20 35 42 58 59 64 36 14 40 14 47 2z m103 -93
c2 -20 0 -37 -5 -37 -17 0 -60 36 -56 47 2 6 -5 14 -16 18 -22 7 -25 14 -15
39 6 14 11 14 48 -6 35 -20 41 -28 44 -61z m1028 1 c19 -37 10 -64 -28 -84
-16 -8 -28 -18 -25 -21 8 -7 47 7 47 17 0 10 69 -31 70 -42 0 -4 -18 -13 -40
-19 -36 -11 -43 -10 -63 8 -12 11 -30 23 -39 26 -24 9 -23 34 2 42 23 7 24 15
9 49 -10 22 -14 23 -36 13 -19 -9 -26 -8 -34 4 -14 22 -11 26 28 42 48 19 88
6 109 -35z m-878 -23 c7 -7 -19 -45 -28 -40 -4 3 -17 -22 -28 -55 -12 -33 -16
-60 -11 -60 11 0 12 -20 1 -37 -13 -20 -112 15 -112 40 0 10 8 21 18 24 23 6
55 94 46 127 -10 41 2 46 58 24 29 -11 54 -21 56 -23z m777 -96 c14 -31 25
-61 25 -66 0 -10 -58 -39 -63 -32 -2 2 -22 48 -44 102 l-42 98 32 14 c36 15
27 27 92 -116z m-947 55 c2 -1 -11 -27 -28 -58 -31 -55 -32 -55 -56 -40 -29
19 -28 17 -8 56 15 29 15 32 0 40 -13 7 -14 13 -6 29 11 19 12 19 53 -3 23
-12 43 -23 45 -24z m816 24 c3 -13 6 -28 6 -34 0 -16 -52 -25 -67 -12 -7 6
-19 8 -27 5 -9 -4 -17 2 -21 14 -4 11 -5 22 -3 23 2 2 73 20 99 25 4 0 9 -9
13 -21z m-553 -7 c4 -3 18 -42 33 -86 27 -81 55 -140 56 -118 0 7 -7 30 -16
52 -9 23 -14 60 -12 92 3 51 4 54 28 51 45 -6 45 -1 9 -178 l-10 -52 -38 10
c-37 9 -39 13 -66 91 -15 45 -36 99 -47 120 l-19 38 38 -7 c21 -3 41 -9 44
-13z m434 -42 l7 -40 39 6 c35 6 39 5 39 -14 0 -15 -9 -23 -32 -29 -18 -5 -32
-13 -31 -18 1 -5 4 -25 8 -45 7 -35 6 -37 -27 -42 -18 -2 -34 -4 -35 -3 -3 3
-43 195 -43 206 0 8 21 14 57 19 6 0 14 -17 18 -40z m-95 12 c0 -11 3 -26 6
-35 5 -13 -1 -16 -30 -16 -20 0 -36 5 -36 10 0 6 -11 10 -25 10 -18 0 -25 5
-25 19 0 16 8 21 48 24 26 2 50 4 55 5 4 1 7 -7 7 -17z m-384 -78 c3 -18 3
-49 0 -69 -7 -34 -9 -35 -39 -28 -18 3 -33 7 -33 8 -3 2 27 150 33 166 6 18
28 -26 39 -77z m264 43 l0 -45 35 6 c33 5 35 4 35 -21 0 -23 -4 -26 -35 -26
-35 0 -35 0 -35 -45 0 -45 0 -45 -35 -45 l-35 0 0 110 0 110 35 0 c35 0 35 0
35 -44z m363 -63 c2 -5 7 -20 10 -34 6 -24 3 -26 -44 -37 -66 -16 -69 -15 -69
6 0 27 49 65 92 71 4 1 9 -2 11 -6z m-233 -78 l0 -36 -57 3 c-50 3 -58 6 -58
23 0 13 8 21 23 23 12 2 20 8 17 13 -4 5 12 9 34 9 40 0 41 -1 41 -35z"/>
<path d="M1758 1676 c-11 -8 -18 -26 -18 -45 0 -17 -7 -48 -15 -68 -8 -19 -14
-59 -13 -87 1 -39 2 -43 5 -17 3 19 14 42 26 52 19 16 20 18 5 19 -23 0 -24
20 -2 20 13 0 14 3 5 14 -7 8 -8 17 -3 20 5 3 9 20 10 37 0 17 5 36 10 41 12
12 65 -9 56 -23 -3 -6 -1 -15 6 -19 9 -6 7 -11 -9 -19 -11 -7 -21 -8 -22 -4 0
4 -7 -12 -15 -37 -8 -25 -11 -58 -8 -73 5 -26 7 -27 23 -13 10 9 22 16 28 16
6 0 13 6 16 13 3 9 7 9 19 -1 9 -7 22 -11 29 -10 8 2 16 -10 19 -32 5 -30 7
-32 13 -14 11 30 -11 71 -40 79 -16 4 -39 -1 -64 -14 -21 -12 -39 -18 -39 -14
0 23 29 81 48 97 16 12 20 22 13 29 -5 5 -7 15 -5 22 11 26 -52 51 -78 31z"/>
<path d="M2086 1624 c-21 -30 -36 -58 -33 -61 3 -3 21 18 39 46 32 49 48 62
48 40 0 -6 9 -8 23 -4 21 6 21 6 3 -9 -15 -12 -22 -13 -27 -4 -5 7 -10 10 -12
8 -11 -14 -67 -101 -91 -141 l-27 -47 101 -56 c55 -31 104 -56 108 -56 4 0 18
-9 32 -20 14 -11 30 -20 36 -20 9 0 101 185 107 215 1 6 -8 11 -20 13 -13 2
-23 9 -23 16 0 15 -52 46 -78 46 -12 0 -24 5 -27 11 -4 5 -18 15 -32 20 -14 5
-23 12 -20 15 3 3 20 -2 39 -12 18 -10 41 -19 51 -21 22 -4 68 -33 84 -53 7
-8 13 -11 13 -6 0 5 7 3 15 -4 10 -8 15 -9 15 -2 0 16 -124 83 -198 108 -35
12 -66 24 -69 28 -12 11 -18 6 -57 -50z m161 -47 c10 -12 25 -21 35 -19 23 5
50 -36 37 -59 -6 -11 -6 -20 1 -24 14 -9 13 -48 -2 -63 -7 -7 -21 -12 -33 -12
-11 0 -26 -9 -33 -20 -14 -24 -45 -26 -62 -5 -7 8 -32 24 -56 35 -43 19 -59
50 -33 65 6 4 7 19 4 35 -10 44 10 73 46 68 17 -3 34 1 40 9 17 19 35 16 56
-10z"/>
<path d="M2193 1544 c-7 -19 11 -39 26 -30 16 10 13 33 -4 40 -9 3 -18 -1 -22
-10z"/>
<path d="M2244 1509 c-3 -6 -2 -15 4 -21 13 -13 32 -2 32 18 0 16 -26 19 -36
3z"/>
<path d="M2162 1483 c-17 -7 -5 -23 18 -23 10 0 26 -10 34 -22 l16 -22 0 25
c0 40 -28 58 -68 42z"/>
<path d="M1142 1417 c-8 -10 -2 -12 29 -9 39 4 85 -20 74 -38 -3 -4 2 -13 11
-20 22 -19 39 1 25 29 -23 42 -115 68 -139 38z"/>
<path d="M1305 1389 c-4 -6 -4 -13 0 -17 4 -4 10 -1 12 6 3 6 9 10 14 7 5 -4
17 -1 26 4 15 9 13 10 -14 11 -17 0 -35 -5 -38 -11z"/>
<path d="M1775 1258 c-14 -21 -21 -38 -15 -38 5 0 10 5 10 10 0 6 12 10 26 10
17 0 28 6 31 20 3 12 14 20 26 20 31 0 11 13 -23 15 -24 1 -34 -5 -55 -37z"/>
<path d="M1717 1208 c-5 -18 3 -48 14 -48 5 0 9 14 9 30 0 30 -15 41 -23 18z"/>
<path d="M1625 1146 c-16 -11 -11 -15 41 -30 33 -10 65 -20 72 -23 6 -2 12 3
12 11 0 9 -8 20 -17 23 -10 4 -20 10 -23 13 -11 15 -68 19 -85 6z"/>
<path d="M2972 1378 c-6 -18 -22 -87 -36 -153 -62 -306 -183 -532 -401 -751
-225 -227 -455 -348 -793 -417 -161 -34 -187 -50 -67 -43 256 16 552 142 791
336 230 188 410 476 489 778 22 84 45 282 33 282 -2 0 -9 -15 -16 -32z"/>
</g>
</svg>
